<?xml version="1.0" encoding="UTF-8" standalone="no"?>
<!DOCTYPE svg PUBLIC "-//W3C//DTD SVG 1.1//EN" "http://www.w3.org/Graphics/SVG/1.1/DTD/svg11.dtd">
<svg width="100%" height="100%" viewBox="0 0 612 398" version="1.1" xmlns="http://www.w3.org/2000/svg" xmlns:xlink="http://www.w3.org/1999/xlink" xml:space="preserve" xmlns:serif="http://www.serif.com/" style="fill-rule:evenodd;clip-rule:evenodd;stroke-linejoin:round;stroke-miterlimit:2;">
    <g transform="matrix(0.998801,0,0,0.998801,-10.1381,-5.77639)">
        <g>
            <g transform="matrix(1,0,0,1,4,365.87)">
                <g transform="matrix(483.026,0,0,483.026,0,0)">
                    <path d="M0.146,-0.333C0.146,-0.365 0.152,-0.395 0.163,-0.423C0.173,-0.451 0.189,-0.475 0.209,-0.496C0.229,-0.517 0.253,-0.533 0.282,-0.545C0.311,-0.557 0.343,-0.563 0.378,-0.563C0.395,-0.563 0.411,-0.562 0.425,-0.56C0.438,-0.557 0.45,-0.554 0.459,-0.551C0.47,-0.548 0.48,-0.544 0.488,-0.539L0.502,-0.563C0.491,-0.568 0.48,-0.572 0.468,-0.576C0.457,-0.579 0.444,-0.582 0.429,-0.585C0.414,-0.588 0.397,-0.589 0.378,-0.589C0.344,-0.589 0.312,-0.583 0.281,-0.571C0.25,-0.559 0.222,-0.542 0.199,-0.52C0.175,-0.497 0.156,-0.47 0.142,-0.439C0.127,-0.407 0.12,-0.372 0.12,-0.333C0.12,-0.294 0.127,-0.258 0.141,-0.227C0.154,-0.196 0.173,-0.169 0.197,-0.147C0.221,-0.124 0.249,-0.107 0.281,-0.095C0.313,-0.083 0.347,-0.077 0.383,-0.077C0.403,-0.077 0.421,-0.079 0.437,-0.082C0.453,-0.085 0.467,-0.089 0.478,-0.093C0.491,-0.098 0.502,-0.103 0.512,-0.109L0.498,-0.133C0.489,-0.127 0.479,-0.122 0.468,-0.118C0.458,-0.114 0.446,-0.111 0.432,-0.108C0.418,-0.105 0.402,-0.103 0.383,-0.103C0.346,-0.103 0.313,-0.109 0.284,-0.121C0.255,-0.133 0.23,-0.149 0.21,-0.17C0.189,-0.191 0.173,-0.215 0.163,-0.243C0.152,-0.271 0.146,-0.301 0.146,-0.333ZM0.02,-0.333C0.02,-0.386 0.029,-0.435 0.048,-0.478C0.067,-0.521 0.092,-0.557 0.124,-0.588C0.156,-0.619 0.193,-0.642 0.236,-0.659C0.279,-0.675 0.324,-0.683 0.372,-0.683C0.41,-0.683 0.444,-0.679 0.474,-0.672C0.503,-0.665 0.529,-0.656 0.55,-0.647C0.575,-0.636 0.596,-0.625 0.614,-0.612L0.509,-0.427C0.498,-0.435 0.487,-0.443 0.474,-0.45C0.463,-0.455 0.449,-0.46 0.434,-0.466C0.418,-0.471 0.4,-0.473 0.38,-0.473C0.359,-0.473 0.34,-0.469 0.323,-0.462C0.306,-0.455 0.291,-0.445 0.278,-0.432C0.265,-0.419 0.254,-0.405 0.247,-0.388C0.24,-0.371 0.236,-0.352 0.236,-0.333C0.236,-0.314 0.24,-0.296 0.248,-0.279C0.255,-0.262 0.266,-0.247 0.279,-0.234C0.292,-0.221 0.308,-0.211 0.326,-0.204C0.344,-0.197 0.364,-0.193 0.385,-0.193C0.406,-0.193 0.425,-0.196 0.442,-0.201C0.459,-0.206 0.473,-0.212 0.484,-0.219C0.497,-0.226 0.509,-0.235 0.519,-0.245L0.624,-0.06C0.606,-0.045 0.585,-0.032 0.56,-0.021C0.539,-0.012 0.513,-0.003 0.483,0.005C0.453,0.013 0.419,0.017 0.38,0.017C0.328,0.017 0.28,0.009 0.236,-0.009C0.192,-0.026 0.154,-0.049 0.122,-0.08C0.09,-0.111 0.065,-0.148 0.047,-0.191C0.029,-0.234 0.02,-0.281 0.02,-0.333Z" style="fill:white;fill-rule:nonzero;"/>
                </g>
            </g>
            <g transform="matrix(1,0,0,1,271.596,365.87)">
                <g transform="matrix(483.026,0,0,483.026,0,0)">
                    <path d="M0.02,-0.333C0.02,-0.381 0.029,-0.426 0.048,-0.469C0.066,-0.512 0.091,-0.549 0.123,-0.581C0.154,-0.612 0.191,-0.637 0.234,-0.656C0.277,-0.674 0.322,-0.683 0.37,-0.683C0.418,-0.683 0.463,-0.674 0.506,-0.656C0.549,-0.637 0.586,-0.612 0.618,-0.581C0.649,-0.549 0.674,-0.512 0.693,-0.469C0.711,-0.426 0.72,-0.381 0.72,-0.333C0.72,-0.285 0.711,-0.24 0.693,-0.197C0.674,-0.154 0.649,-0.117 0.618,-0.086C0.586,-0.054 0.549,-0.029 0.506,-0.011C0.463,0.008 0.418,0.017 0.37,0.017C0.322,0.017 0.277,0.008 0.234,-0.011C0.191,-0.029 0.154,-0.054 0.123,-0.086C0.091,-0.117 0.066,-0.154 0.048,-0.197C0.029,-0.24 0.02,-0.285 0.02,-0.333ZM0.114,-0.333C0.114,-0.298 0.121,-0.265 0.134,-0.234C0.147,-0.203 0.166,-0.175 0.189,-0.152C0.212,-0.129 0.24,-0.11 0.271,-0.097C0.302,-0.084 0.335,-0.077 0.37,-0.077C0.405,-0.077 0.439,-0.084 0.47,-0.097C0.501,-0.11 0.528,-0.129 0.551,-0.152C0.574,-0.175 0.593,-0.203 0.606,-0.234C0.619,-0.265 0.626,-0.298 0.626,-0.333C0.626,-0.368 0.619,-0.401 0.606,-0.433C0.593,-0.464 0.574,-0.491 0.551,-0.514C0.528,-0.537 0.501,-0.556 0.47,-0.569C0.439,-0.582 0.405,-0.589 0.37,-0.589C0.335,-0.589 0.302,-0.582 0.271,-0.569C0.24,-0.556 0.212,-0.537 0.189,-0.514C0.166,-0.491 0.147,-0.464 0.134,-0.433C0.121,-0.401 0.114,-0.368 0.114,-0.333ZM0.23,-0.333C0.23,-0.314 0.234,-0.296 0.241,-0.279C0.248,-0.262 0.258,-0.247 0.271,-0.234C0.284,-0.221 0.299,-0.211 0.316,-0.204C0.333,-0.197 0.351,-0.193 0.37,-0.193C0.389,-0.193 0.408,-0.197 0.425,-0.204C0.442,-0.211 0.456,-0.221 0.469,-0.234C0.482,-0.247 0.492,-0.262 0.499,-0.279C0.506,-0.296 0.51,-0.314 0.51,-0.333C0.51,-0.352 0.506,-0.371 0.499,-0.388C0.492,-0.405 0.482,-0.419 0.469,-0.432C0.456,-0.445 0.442,-0.455 0.425,-0.462C0.408,-0.469 0.389,-0.473 0.37,-0.473C0.351,-0.473 0.333,-0.469 0.316,-0.462C0.299,-0.455 0.284,-0.445 0.271,-0.432C0.258,-0.419 0.248,-0.405 0.241,-0.388C0.234,-0.371 0.23,-0.352 0.23,-0.333ZM0.37,-0.103C0.338,-0.103 0.308,-0.109 0.281,-0.121C0.253,-0.133 0.229,-0.15 0.208,-0.171C0.187,-0.192 0.17,-0.216 0.158,-0.244C0.146,-0.271 0.14,-0.301 0.14,-0.333C0.14,-0.365 0.146,-0.395 0.158,-0.423C0.17,-0.45 0.187,-0.474 0.208,-0.496C0.229,-0.517 0.253,-0.533 0.281,-0.545C0.308,-0.557 0.338,-0.563 0.37,-0.563C0.402,-0.563 0.432,-0.557 0.46,-0.545C0.487,-0.533 0.511,-0.517 0.533,-0.496C0.554,-0.474 0.57,-0.45 0.582,-0.423C0.594,-0.395 0.6,-0.365 0.6,-0.333C0.6,-0.301 0.594,-0.271 0.582,-0.244C0.57,-0.216 0.554,-0.192 0.533,-0.171C0.511,-0.15 0.487,-0.133 0.46,-0.121C0.432,-0.109 0.402,-0.103 0.37,-0.103Z" style="fill:white;fill-rule:nonzero;"/>
                </g>
            </g>
        </g>
    </g>
</svg>
