<?xml version="1.0" encoding="UTF-8" standalone="no"?>
<!DOCTYPE svg PUBLIC "-//W3C//DTD SVG 1.1//EN" "http://www.w3.org/Graphics/SVG/1.1/DTD/svg11.dtd">
<svg width="100%" height="100%" viewBox="0 0 3652 2757" version="1.1" xmlns="http://www.w3.org/2000/svg" xmlns:xlink="http://www.w3.org/1999/xlink" xml:space="preserve" xmlns:serif="http://www.serif.com/" style="fill-rule:evenodd;clip-rule:evenodd;stroke-linejoin:round;stroke-miterlimit:2;">
    <path d="M2104.04,134.142C2135.36,200.788 2068.99,219.666 1992.98,255.388C1916.96,291.109 1860.07,330.148 1828.75,263.502C1797.43,196.855 1772.02,64.574 1879.57,14.039C1990.81,-38.236 2072.72,67.495 2104.04,134.142Z" style="fill:rgb(47,46,65);fill-rule:nonzero;"/>
    <circle cx="1948.94" cy="162.871" r="102.338" style="fill:rgb(252,235,170);"/>
    <path d="M2455.94,616.718C2452.4,612.093 2448.86,607.551 2445.27,603.135C2440.65,597.385 2435.99,591.815 2431.31,586.426C2378.27,525.218 2321.86,486.676 2259.73,482.551L2259.65,482.551L2258.73,482.468L2134.94,603.135L2092.86,644.135L2093.77,646.385L2116.48,702.926L2514.36,702.926C2496.43,673.174 2476.93,644.397 2455.94,616.718L2455.94,616.718Z" style="fill:rgb(47,46,65);fill-rule:nonzero;"/>
    <path d="M1837.66,204.072L1874.29,186.858L1869.19,134.011L1893.69,177.745L1911.2,169.517L1908.22,138.69L1922.51,164.201L2052.61,103.065C2027.34,49.278 1962.28,25.816 1908.49,51.091L1889.63,59.951C1835.85,85.226 1812.38,150.285 1837.66,204.072Z" style="fill:rgb(47,46,65);fill-rule:nonzero;"/>
    <path d="M2685.53,2061.67L548.7,2061.67C511.001,2061.63 479.993,2030.62 479.95,1992.92L479.95,708.95C479.981,681.331 502.698,658.614 530.316,658.582L2703.04,658.582C2731.13,658.614 2754.24,681.724 2754.27,709.821L2754.27,1992.92C2754.23,2030.62 2723.22,2061.63 2685.52,2061.67L2685.53,2061.67Z" style="fill:rgb(242,242,242);fill-rule:nonzero;"/>
    <path d="M615.365,1992.92L2618.86,1992.92C2655.43,1992.92 2685.52,1962.83 2685.52,1926.25L2685.52,836.474C2685.52,799.902 2655.43,769.807 2618.86,769.807L615.365,769.807C578.793,769.807 548.698,799.902 548.698,836.474L548.698,1926.25C548.698,1962.83 578.793,1992.92 615.365,1992.92Z" style="fill:white;fill-rule:nonzero;"/>
    <path d="M2753.32,705.011L478.98,705.011L478.98,670.009C479.035,632.185 510.156,601.083 547.981,601.051L2684.31,601.051C2722.14,601.083 2753.26,632.184 2753.31,670.009L2753.31,705.011L2753.32,705.011Z" style="fill:rgb(255,127,80);fill-rule:nonzero;"/>
    <circle cx="604.381" cy="653.135" r="17.848" style="fill:white;"/>
    <circle cx="672.126" cy="653.135" r="17.848" style="fill:white;"/>
    <circle cx="739.871" cy="653.135" r="17.848" style="fill:white;"/>
    <g transform="matrix(1,0,0,1,-198,0)">
        <path d="M1679.63,1756.58L1500.46,1756.58C1478.76,1756.56 1460.9,1738.7 1460.88,1717L1460.88,1537.83C1460.9,1516.12 1478.76,1498.27 1500.46,1498.25L1679.63,1498.25C1701.34,1498.27 1719.19,1516.12 1719.21,1537.83L1719.21,1717C1719.19,1738.7 1701.34,1756.56 1679.63,1756.58ZM1500.46,1506.58C1483.33,1506.6 1469.23,1520.69 1469.21,1537.83L1469.21,1717C1469.23,1734.13 1483.33,1748.23 1500.46,1748.25L1679.63,1748.25C1696.77,1748.23 1710.86,1734.13 1710.88,1717L1710.88,1537.83C1710.86,1520.69 1696.77,1506.6 1679.63,1506.58L1500.46,1506.58Z" style="fill:rgb(204,204,204);fill-rule:nonzero;"/>
        <path d="M1644.21,1706.58L1535.88,1706.58C1529.02,1706.57 1523.38,1700.93 1523.38,1694.08L1523.38,1560.75C1523.38,1553.89 1529.02,1548.26 1535.88,1548.25L1614.37,1548.25C1617.22,1548.25 1619.98,1549.22 1622.2,1551L1652.04,1574.98C1655,1577.34 1656.72,1580.93 1656.71,1584.72L1656.71,1694.08C1656.7,1700.93 1651.07,1706.57 1644.21,1706.58L1644.21,1706.58ZM1535.88,1556.58C1533.59,1556.58 1531.71,1558.46 1531.71,1560.75L1531.71,1694.08C1531.71,1696.36 1533.59,1698.24 1535.88,1698.25L1644.21,1698.25C1646.5,1698.24 1648.37,1696.36 1648.38,1694.08L1648.38,1584.72C1648.38,1583.46 1647.81,1582.26 1646.82,1581.47L1616.98,1557.5C1616.24,1556.9 1615.32,1556.58 1614.37,1556.58L1535.88,1556.58Z" style="fill:rgb(255,127,80);fill-rule:nonzero;"/>
        <path d="M1623.38,1606.58L1556.71,1606.58C1554.43,1606.58 1552.55,1604.7 1552.55,1602.41C1552.55,1600.13 1554.43,1598.25 1556.71,1598.25L1623.38,1598.25C1625.67,1598.25 1627.55,1600.13 1627.55,1602.41C1627.55,1604.7 1625.67,1606.58 1623.38,1606.58Z" style="fill:rgb(255,127,80);fill-rule:nonzero;"/>
        <path d="M1623.38,1631.58L1556.71,1631.58C1554.43,1631.58 1552.55,1629.7 1552.55,1627.41C1552.55,1625.13 1554.43,1623.25 1556.71,1623.25L1623.38,1623.25C1625.67,1623.25 1627.55,1625.13 1627.55,1627.41C1627.55,1629.7 1625.67,1631.58 1623.38,1631.58Z" style="fill:rgb(255,127,80);fill-rule:nonzero;"/>
        <path d="M1623.38,1656.58L1556.71,1656.58C1554.43,1656.58 1552.55,1654.7 1552.55,1652.41C1552.55,1650.13 1554.43,1648.25 1556.71,1648.25L1623.38,1648.25C1625.67,1648.25 1627.55,1650.13 1627.55,1652.41C1627.55,1654.7 1625.67,1656.58 1623.38,1656.58Z" style="fill:rgb(255,127,80);fill-rule:nonzero;"/>
        <path d="M2104.63,1756.58L1925.46,1756.58C1903.76,1756.56 1885.9,1738.7 1885.88,1717L1885.88,1537.83C1885.9,1516.12 1903.76,1498.27 1925.46,1498.25L2104.63,1498.25C2126.34,1498.27 2144.19,1516.12 2144.21,1537.83L2144.21,1717C2144.19,1738.7 2126.34,1756.56 2104.63,1756.58ZM1925.46,1506.58C1908.33,1506.6 1894.23,1520.69 1894.21,1537.83L1894.21,1717C1894.23,1734.13 1908.33,1748.23 1925.46,1748.25L2104.63,1748.25C2121.77,1748.23 2135.86,1734.13 2135.88,1717L2135.88,1537.83C2135.86,1520.69 2121.77,1506.6 2104.63,1506.58L1925.46,1506.58Z" style="fill:rgb(204,204,204);fill-rule:nonzero;"/>
        <path d="M2073.38,1673.25L1956.71,1673.25C1949.86,1673.24 1944.22,1667.61 1944.21,1660.75L1944.21,1594.08C1944.22,1587.23 1949.86,1581.59 1956.71,1581.58L2073.38,1581.58C2080.23,1581.59 2085.87,1587.23 2085.88,1594.08L2085.88,1660.75C2085.87,1667.61 2080.23,1673.24 2073.38,1673.25ZM1956.71,1589.92C1954.43,1589.92 1952.55,1591.8 1952.55,1594.08L1952.55,1660.75C1952.55,1663.04 1954.43,1664.91 1956.71,1664.92L2073.38,1664.92C2075.66,1664.91 2077.54,1663.04 2077.55,1660.75L2077.55,1594.08C2077.54,1591.8 2075.66,1589.92 2073.38,1589.92L1956.71,1589.92Z" style="fill:rgb(255,127,80);fill-rule:nonzero;"/>
        <path d="M2015.04,1638.4C2012.7,1638.4 2010.4,1637.75 2008.41,1636.51L1946.16,1597.61C1944.95,1596.85 1944.21,1595.51 1944.21,1594.08C1944.21,1591.79 1946.09,1589.91 1948.38,1589.91C1949.16,1589.91 1949.92,1590.13 1950.58,1590.54L2012.83,1629.45C2014.18,1630.28 2015.9,1630.28 2017.25,1629.45L2079.5,1590.54C2080.16,1590.13 2080.92,1589.91 2081.7,1589.91C2083.99,1589.91 2085.87,1591.79 2085.87,1594.08C2085.87,1595.51 2085.13,1596.85 2083.92,1597.61L2021.67,1636.51C2019.68,1637.75 2017.38,1638.4 2015.04,1638.4Z" style="fill:rgb(255,127,80);fill-rule:nonzero;"/>
        <path d="M1254.63,1756.58L1075.46,1756.58C1053.76,1756.56 1035.9,1738.7 1035.88,1717L1035.88,1537.83C1035.9,1516.12 1053.76,1498.27 1075.46,1498.25L1254.63,1498.25C1276.34,1498.27 1294.19,1516.12 1294.21,1537.83L1294.21,1717C1294.19,1738.7 1276.34,1756.56 1254.63,1756.58ZM1075.46,1506.58C1058.33,1506.6 1044.23,1520.69 1044.21,1537.83L1044.21,1717C1044.23,1734.13 1058.33,1748.23 1075.46,1748.25L1254.63,1748.25C1271.77,1748.23 1285.86,1734.13 1285.88,1717L1285.88,1537.83C1285.86,1520.69 1271.77,1506.6 1254.63,1506.58L1075.46,1506.58Z" style="fill:rgb(204,204,204);fill-rule:nonzero;"/>
        <path d="M1223.38,1673.25L1106.71,1673.25C1099.86,1673.24 1094.22,1667.61 1094.21,1660.75L1094.21,1594.08C1094.22,1587.23 1099.86,1581.59 1106.71,1581.58L1223.38,1581.58C1230.23,1581.59 1235.87,1587.23 1235.88,1594.08L1235.88,1660.75C1235.87,1667.61 1230.23,1673.24 1223.38,1673.25ZM1106.71,1589.92C1104.43,1589.92 1102.55,1591.8 1102.55,1594.08L1102.55,1660.75C1102.55,1663.04 1104.43,1664.91 1106.71,1664.92L1223.38,1664.92C1225.66,1664.91 1227.54,1663.04 1227.55,1660.75L1227.55,1594.08C1227.54,1591.8 1225.66,1589.92 1223.38,1589.92L1106.71,1589.92Z" style="fill:rgb(255,127,80);fill-rule:nonzero;"/>
        <path d="M1204.88,1673.25L1121.03,1673.25C1116.46,1673.25 1112.7,1669.49 1112.7,1664.92C1112.7,1663.45 1113.08,1662.02 1113.81,1660.75L1139.07,1617C1140.56,1614.42 1143.31,1612.83 1146.29,1612.83C1149.26,1612.83 1152.02,1614.42 1153.51,1617L1169.82,1645.26L1179.27,1628.89C1180.76,1626.31 1183.51,1624.72 1186.49,1624.72C1189.46,1624.72 1192.22,1626.31 1193.7,1628.89L1212.1,1660.75C1212.83,1662.02 1213.21,1663.45 1213.21,1664.92C1213.21,1669.49 1209.45,1673.25 1204.88,1673.25ZM1204.88,1664.92L1186.49,1633.05L1173.43,1655.67C1172.68,1656.96 1171.31,1657.76 1169.82,1657.76C1168.33,1657.76 1166.95,1656.96 1166.21,1655.67L1146.29,1621.17L1121.03,1664.92L1204.88,1664.92Z" style="fill:rgb(255,127,80);fill-rule:nonzero;"/>
        <circle cx="1210.88" cy="1606.58" r="8.333" style="fill:rgb(255,127,80);"/>
    </g>
    <path d="M3203.44,2700.62L3152.36,2700.62L3128.06,2503.58L3203.45,2503.59L3203.44,2700.62Z" style="fill:rgb(255,184,184);fill-rule:nonzero;"/>
    <path d="M3216.46,2750.14L3051.75,2750.13L3051.75,2748.05C3051.75,2712.88 3080.69,2683.94 3115.86,2683.94L3216.46,2683.95L3216.46,2750.14Z" style="fill:rgb(47,46,65);fill-rule:nonzero;"/>
    <path d="M3411.77,2700.62L3360.69,2700.62L3336.39,2503.58L3411.78,2503.59L3411.77,2700.62Z" style="fill:rgb(255,184,184);fill-rule:nonzero;"/>
    <path d="M3424.8,2750.14L3260.09,2750.13L3260.09,2748.05C3260.09,2712.88 3289.03,2683.94 3324.2,2683.94L3424.8,2683.95L3424.8,2750.14Z" style="fill:rgb(47,46,65);fill-rule:nonzero;"/>
    <path d="M3396.46,2615.21L3349.15,2600.82C3341.95,2598.64 3336.74,2592.33 3335.96,2584.85L3291.85,2166.82C3291.78,2165.78 3290.9,2164.96 3289.86,2164.96C3288.81,2164.86 3287.86,2165.62 3287.73,2166.66L3213.85,2571.66C3212.23,2580.53 3204.43,2587.04 3195.4,2587.04C3194.13,2587.04 3192.87,2586.91 3191.62,2586.66L3131.16,2574.2C3122.03,2572.29 3115.63,2563.87 3116.24,2554.57L3161.17,1890.77L3465.91,1857.88L3420.63,2598.41C3420.03,2608.24 3411.79,2616 3401.95,2616.03C3400.09,2616.03 3398.24,2615.75 3396.46,2615.21Z" style="fill:rgb(47,46,65);fill-rule:nonzero;"/>
    <circle cx="3396.17" cy="1210.36" r="102.338" style="fill:rgb(255,184,184);"/>
    <path d="M3160.7,1894.66L3226.78,1478.61C3238.89,1402.34 3305.33,1345.62 3382.56,1345.62C3397.53,1345.62 3412.43,1347.75 3426.8,1351.95C3504.29,1374.36 3552.61,1452.94 3537.64,1532.21L3468.51,1903.76L3160.7,1894.66Z" style="fill:rgb(255,127,80);fill-rule:nonzero;"/>
    <path d="M3424.42,1969.11C3436.15,1961.36 3443.23,1948.21 3443.23,1934.14C3443.23,1923.4 3439.1,1913.06 3431.7,1905.28L3500.02,1772.98L3423.08,1781.19L3370,1905.56C3362.84,1913.34 3358.86,1923.53 3358.86,1934.11C3358.86,1957.22 3377.87,1976.23 3400.98,1976.23C3409.33,1976.23 3417.49,1973.75 3424.42,1969.11Z" style="fill:rgb(255,184,184);fill-rule:nonzero;"/>
    <path d="M3439.05,1881.94C3435.27,1881.41 3431.74,1879.73 3428.94,1877.14L3402.8,1852.99C3397.03,1847.63 3395.21,1839.19 3398.25,1831.93L3450.49,1708.11L3443.08,1463.44C3447.12,1433.63 3472.85,1411.15 3502.94,1411.15C3536.07,1411.15 3563.34,1438.41 3563.34,1471.55C3563.34,1474.3 3563.15,1477.05 3562.78,1479.77L3575.45,1633.57C3579.3,1680.24 3566.06,1726.75 3538.21,1764.39L3456.74,1874.53C3453.57,1878.8 3448.73,1881.54 3443.43,1882.04C3441.97,1882.18 3440.5,1882.15 3439.05,1881.94Z" style="fill:rgb(255,127,80);fill-rule:nonzero;"/>
    <path d="M2806.84,1154.61C2810.5,1174.39 2827.92,1188.88 2848.04,1188.88C2853.08,1188.88 2858.07,1187.97 2862.78,1186.2L2957.97,1300.69L2980.41,1226.64L2886.58,1129.27C2879.76,1114.24 2864.71,1104.55 2848.21,1104.55C2825.1,1104.55 2806.09,1123.56 2806.09,1146.67C2806.09,1149.34 2806.34,1151.99 2806.84,1154.61Z" style="fill:rgb(255,184,184);fill-rule:nonzero;"/>
    <path d="M2881.4,1202.06C2883.36,1198.79 2886.28,1196.19 2889.76,1194.62L2922.19,1179.97C2929.37,1176.74 2937.86,1178.35 2943.36,1183.99L3037.01,1280.37L3265.21,1368.94C3283.54,1379.8 3294.82,1399.6 3294.82,1420.9C3294.82,1454.04 3267.55,1481.31 3234.41,1481.31C3223.53,1481.31 3212.85,1478.37 3203.5,1472.8L3056.93,1424.5C3012.46,1409.85 2974.79,1379.52 2950.99,1339.2L2881.33,1221.24C2878.63,1216.65 2878,1211.13 2879.6,1206.05C2880.04,1204.65 2880.64,1203.31 2881.4,1202.06Z" style="fill:rgb(255,127,80);fill-rule:nonzero;"/>
    <path d="M3479.18,1565.22L3475.01,1698.55L3398.26,1831.93L3462.35,1683.3L3479.18,1565.22Z" style="fill-opacity:0.1;fill-rule:nonzero;"/>
    <path d="M3384.44,1229.59C3371.21,1231.31 3358.61,1222.88 3355.15,1210C3351.85,1195.34 3340.68,1183.65 3326.18,1179.69C3307.41,1175.4 3284.47,1184.24 3270.71,1170.02C3264.74,1163.43 3262.3,1154.36 3264.15,1145.67C3266.68,1131.85 3276.57,1121.41 3287.33,1113.06C3309.97,1095.57 3337.38,1085.32 3365.94,1083.68C3380.72,1083.25 3395.52,1083.99 3410.19,1085.88C3425.55,1086.85 3440.74,1089.63 3455.45,1094.15C3489.48,1106.99 3514.67,1136.39 3522.13,1171.99C3528.93,1207.56 3519.69,1244.38 3496.89,1272.53C3483.4,1289.33 3466,1302.58 3446.22,1311.11C3441.51,1313.33 3436.11,1313.61 3431.2,1311.87C3418.87,1306.97 3420.89,1291.71 3426.51,1281.53C3432.52,1270.63 3441.77,1260.08 3436.93,1246.83C3434.51,1240.68 3429.86,1235.67 3423.91,1232.8C3411.66,1226.55 3397.95,1228.03 3384.78,1229.55L3384.44,1229.59Z" style="fill:rgb(47,46,65);fill-rule:nonzero;"/>
    <path d="M2772.64,1287.39L1505.97,1287.39C1468.27,1287.35 1437.26,1256.34 1437.22,1218.64L1437.22,947.807C1437.26,910.108 1468.27,879.099 1505.97,879.057L2772.64,879.057C2810.34,879.1 2841.35,910.108 2841.39,947.807L2841.39,1218.64C2841.35,1256.34 2810.34,1287.35 2772.64,1287.39Z" style="fill:white;fill-rule:nonzero;"/>
    <path d="M2772.64,1289.47L1505.97,1289.47C1467.13,1289.43 1435.18,1257.48 1435.14,1218.64L1435.14,947.803C1435.18,908.962 1467.13,877.014 1505.97,876.97L2772.64,876.97C2811.48,877.014 2843.43,908.962 2843.47,947.803L2843.47,1218.64C2843.43,1257.48 2811.48,1289.43 2772.64,1289.47ZM1505.97,885.303C1471.7,885.342 1443.51,913.531 1443.47,947.803L1443.47,1218.64C1443.51,1252.91 1471.7,1281.1 1505.97,1281.14L2772.64,1281.14C2806.91,1281.1 2835.1,1252.91 2835.14,1218.64L2835.14,947.803C2835.1,913.531 2806.91,885.342 2772.64,885.303L1505.97,885.303Z" style="fill:rgb(63,61,86);fill-rule:nonzero;"/>
    <path d="M2618.47,1220.72L1660.14,1220.72C1622.44,1220.68 1591.43,1189.67 1591.39,1151.97L1591.39,1010.3C1591.43,972.604 1622.44,941.596 1660.14,941.553L2618.47,941.553C2656.17,941.596 2687.18,972.604 2687.22,1010.3L2687.22,1151.97C2687.18,1189.67 2656.17,1220.68 2618.47,1220.72Z" style="fill:rgb(242,242,242);fill-rule:nonzero;"/>
    <circle cx="1866.37" cy="1062.14" r="82.218" style="fill:rgb(255,127,80);"/>
    <path d="M2558.92,1212.42L2442.87,1115.09L2328.82,1019.44C2322.63,1014.25 2313.52,1014.26 2307.35,1019.48L2193.67,1115.57L2165.9,1139.04L2124.03,1103.93L1996.8,997.214C1990.61,992.025 1981.5,992.042 1975.33,997.255L1848.5,1104.46L1719.68,1213.35C1718.75,1214.14 1718.2,1215.3 1718.2,1216.53C1718.2,1218.81 1720.09,1220.69 1722.37,1220.69L1722.38,1220.69L1986.49,1220.19L2070.09,1220.03L2069.27,1220.72L2318.47,1220.24L2556.25,1219.78C2558.53,1219.78 2560.41,1217.9 2560.41,1215.61C2560.41,1214.38 2559.86,1213.21 2558.92,1212.42Z" style="fill:rgb(63,61,86);fill-rule:nonzero;"/>
    <path d="M3646.97,2756.14L2846.97,2756.14C2844.68,2756.14 2842.8,2754.26 2842.8,2751.97C2842.8,2749.69 2844.68,2747.81 2846.97,2747.81L3646.97,2747.81C3649.26,2747.81 3651.14,2749.69 3651.14,2751.97C3651.14,2754.26 3649.26,2756.14 3646.97,2756.14Z" style="fill:rgb(204,204,204);fill-rule:nonzero;"/>
    <path d="M2516.9,549.635C2510.18,538.71 2499.25,531.021 2486.69,528.385C2484.41,527.906 2482.1,527.613 2479.78,527.509L2162.32,243.676C2156.08,237.269 2147.76,233.292 2138.86,232.468C2137.1,232.266 2135.33,232.21 2133.57,232.301C2113.54,233.211 2097.55,249.939 2097.55,269.991C2097.55,280.058 2101.58,289.718 2108.73,296.801L2230.28,402.759L2429.86,576.718C2430.02,579.994 2430.51,583.246 2431.32,586.426C2436.2,605.244 2452.28,619.169 2471.61,621.301C2480.24,622.309 2488.97,620.864 2496.82,617.135C2503.04,614.226 2508.55,610.004 2512.98,604.76C2513.44,604.218 2513.86,603.718 2514.28,603.135C2526.18,587.623 2527.23,566.237 2516.9,549.635Z" style="fill:rgb(252,235,170);fill-rule:nonzero;"/>
    <path d="M1973.9,823.176L1970.94,702.926L1968.44,603.135L1966.73,533.301L1963.36,397.176C1961.59,377.875 1945.21,362.924 1925.82,362.924C1915.19,362.924 1905.04,367.423 1897.9,375.301C1896.74,376.54 1895.7,377.879 1894.77,379.301C1889.65,386.646 1887.34,395.601 1888.27,404.51L1895.69,603.135L1899.4,702.926L1904.15,830.218C1902.78,832.088 1901.54,834.051 1900.44,836.093C1894.46,847.442 1893.38,860.767 1897.48,872.926C1903.91,892.082 1921.97,905.074 1942.17,905.074C1949.14,905.074 1956.02,903.529 1962.32,900.551C1978.75,892.781 1989.28,876.161 1989.28,857.983C1989.28,844.741 1983.69,832.094 1973.9,823.176Z" style="fill:rgb(252,235,170);fill-rule:nonzero;"/>
    <path d="M2259.74,482.551L2230.28,402.76L2182.61,273.51C2175.65,254.472 2160.38,239.612 2141.16,233.176C2140.41,232.926 2139.61,232.676 2138.86,232.468C2120.26,226.821 2100.09,229.594 2083.7,240.051L1923.15,341.884C1892.78,361.108 1882.99,401.514 1901.2,432.509C1921.27,467.225 1943.15,500.868 1966.74,533.301C1985.45,558.759 2020.28,561.468 2026.32,603.134L2144.7,603.134L2264.53,495.551L2259.74,482.551Z" style="fill:rgb(204,204,204);fill-rule:nonzero;"/>
    <circle cx="421.519" cy="1361.18" r="96.549" style="fill:rgb(160,97,106);"/>
    <path d="M658.547,1294.72C659.499,1295.48 660.421,1296.28 661.314,1297.13C669.986,1305.3 674.908,1316.7 674.908,1328.61C674.908,1341.33 669.294,1353.43 659.576,1361.64C658.491,1362.55 657.359,1363.41 656.185,1364.2L662.719,1584.8C663.1,1599.59 653.67,1612.97 639.615,1617.58L639.217,1617.67L460.097,1636.74C458.795,1636.88 457.486,1636.95 456.177,1636.95C435.837,1636.95 419.099,1620.21 419.099,1599.87C419.099,1580.76 433.881,1564.62 452.922,1562.94L580.606,1551.69L602.688,1360.65C601.244,1359.37 599.891,1357.99 598.64,1356.52C592.046,1348.72 588.426,1338.83 588.426,1328.61C588.426,1304.88 607.95,1285.36 631.676,1285.36C641.431,1285.36 650.904,1288.66 658.547,1294.72Z" style="fill:rgb(160,97,106);fill-rule:nonzero;"/>
    <path d="M580.533,2704.89L628.729,2704.89L651.654,2519L580.525,2519L580.533,2704.89Z" style="fill:rgb(160,97,106);fill-rule:nonzero;"/>
    <path d="M568.242,2689.16L663.156,2689.16C696.336,2689.16 723.638,2716.46 723.638,2749.64L723.638,2751.6L568.245,2751.61L568.242,2689.16Z" style="fill:rgb(47,46,65);fill-rule:nonzero;"/>
    <path d="M101.525,2638.26L142.933,2662.91L257.738,2514.93L196.621,2478.54L101.525,2638.26Z" style="fill:rgb(160,97,106);fill-rule:nonzero;"/>
    <path d="M99.012,2618.45L180.561,2667L180.564,2667.01C198.859,2677.9 210.104,2697.68 210.104,2718.97C210.104,2729.87 207.161,2740.56 201.588,2749.92L200.583,2751.61L67.064,2672.11L99.012,2618.45Z" style="fill:rgb(47,46,65);fill-rule:nonzero;"/>
    <path d="M640.1,2639.24L586.134,2639.24C577.129,2639.25 569.482,2632.38 568.545,2623.42L514.14,2112.01C513.822,2109.03 511.276,2106.74 508.276,2106.74C505.963,2106.74 503.854,2108.1 502.902,2110.21L404.754,2327.54L230.989,2610.88C226.361,2618.36 216.847,2621.33 208.785,2617.82L139.368,2587.28C132.959,2584.46 128.803,2578.09 128.803,2571.09C128.803,2567.89 129.668,2564.76 131.306,2562.01L291.044,2294.55L340.034,2069.19C324.626,1971.46 390.68,1826.17 391.35,1824.71L391.677,1824L573.625,1752.88L574.538,1754C646.292,1989.47 690.017,2242.88 657.732,2623.03C656.911,2632.12 649.228,2639.19 640.1,2639.24Z" style="fill:rgb(47,46,65);fill-rule:nonzero;"/>
    <path d="M384.347,1847.81L383.499,1846.03C383.094,1845.18 342.637,1759.85 311.449,1668.65C299.337,1633.01 302.723,1593.87 320.777,1560.84C339.065,1527.47 370.547,1503.26 407.496,1494.16C472.81,1478.5 540.438,1513.4 565.528,1575.7C590.267,1637.56 582.383,1703.59 574.963,1755.52L574.815,1756.56L573.869,1757.01L384.347,1847.81Z" style="fill:rgb(63,61,86);fill-rule:nonzero;"/>
    <path d="M538.582,1306.64L385.274,1306.64L385.274,1239.81C418.923,1226.44 451.851,1215.08 471.755,1239.81C508.415,1239.81 538.581,1269.98 538.582,1306.64Z" style="fill:rgb(47,46,65);fill-rule:nonzero;"/>
    <path d="M376.786,1228.02C285.136,1228.02 259.483,1342.9 259.483,1407.71C259.483,1443.85 275.829,1456.78 301.514,1461.15L310.586,1412.78L331.832,1463.24C339.047,1463.27 346.626,1463.13 354.485,1462.99L361.688,1448.15L377.752,1462.72C442.089,1462.82 494.088,1472.19 494.088,1407.71C494.088,1342.9 471.59,1228.02 376.786,1228.02Z" style="fill:rgb(47,46,65);fill-rule:nonzero;"/>
    <path d="M804.167,2756.14L4.167,2756.14C1.881,2756.14 0,2754.26 0,2751.97C0,2749.69 1.881,2747.81 4.167,2747.81L804.167,2747.81C806.452,2747.81 808.333,2749.69 808.333,2751.97C808.333,2754.26 806.452,2756.14 804.167,2756.14Z" style="fill:rgb(204,204,204);fill-rule:nonzero;"/>
    <g transform="matrix(0.459647,0.139048,-0.139048,0.459647,676.922,921.391)">
        <path d="M402.94,584.045C373.59,584.045 356.651,612.851 356.651,648.413C356.361,684.549 373.867,712.224 402.666,712.224C431.741,712.224 448.683,684.834 448.683,647.579C448.682,612.851 432.307,584.045 402.94,584.045Z" style="fill:rgb(255,127,80);fill-rule:nonzero;"/>
        <path d="M690.042,191.709C689.996,188.04 688.832,184.417 686.312,181.552L532.06,5.365C532.03,5.316 531.97,5.3 531.938,5.255C531.019,4.228 529.963,3.381 528.828,2.635C528.491,2.417 528.138,2.221 527.786,2.022C526.805,1.49 525.778,1.049 524.692,0.726C524.416,0.642 524.14,0.523 523.849,0.447C522.686,0.166 521.476,0 520.265,0L141.176,0C123.881,0 109.804,14.078 109.804,31.374L109.804,768.628C109.804,785.93 123.881,800.001 141.176,800.001L658.822,800.001C676.118,800.001 690.196,785.93 690.196,768.628L690.196,193.467C690.195,192.877 690.103,192.299 690.042,191.709ZM214.062,746.1C192.313,746.1 170.864,740.447 160.141,734.511L168.887,698.949C180.453,704.877 198.249,710.806 216.589,710.806C236.361,710.806 246.798,702.61 246.798,690.188C246.798,678.323 237.779,671.56 214.909,663.38C183.295,652.366 162.677,634.849 162.677,607.19C162.677,574.722 189.791,549.876 234.674,549.876C256.135,549.876 271.944,554.394 283.23,559.48L273.625,594.199C266.008,590.538 252.456,585.184 233.828,585.184C215.185,585.184 206.167,593.64 206.167,603.528C206.167,615.668 216.886,621.03 241.445,630.345C275.035,642.767 290.862,660.276 290.862,687.1C290.854,718.986 266.283,746.1 214.062,746.1ZM482.551,776.01C455.453,768.106 432.872,759.926 407.459,749.187C403.231,747.502 398.712,746.652 394.192,746.375C351.285,743.563 311.201,711.93 311.201,649.814C311.201,592.79 347.333,549.876 404.072,549.876C462.237,549.876 494.131,593.916 494.131,645.862C494.131,689.06 474.094,719.551 448.955,730.835L448.955,731.975C463.646,736.219 480.022,739.605 494.974,742.691L482.551,776.01ZM641.236,743.274L522.38,743.274L522.38,552.994L565.578,552.994L565.578,707.13L641.236,707.13L641.236,743.274ZM141.176,532.682L141.176,31.374L504.579,31.374L504.579,191.889C504.579,200.547 511.595,207.576 520.265,207.576L658.822,207.576L658.838,532.682L141.176,532.682Z" style="fill:rgb(255,127,80);fill-rule:nonzero;"/>
        <path d="M485.277,248.614C485.967,246.714 486.457,244.769 486.457,242.713C486.457,217.461 431.892,203.838 380.54,203.838C329.238,203.838 274.688,217.461 274.688,242.713C274.688,244.769 275.167,246.723 275.864,248.63L275.591,249.116C273.244,253.375 272.084,257.671 272.084,261.899L272.084,293.145C272.084,297.956 273.597,302.575 276.281,306.941L275.93,307.538C273.371,311.976 272.085,316.471 272.085,320.912L272.085,352.15C272.085,356.81 273.513,361.28 276.052,365.524L275.93,365.719C273.371,370.15 272.085,374.654 272.085,379.084L272.085,410.326C272.085,438.099 319.726,459.844 380.541,459.844C441.421,459.844 489.062,438.099 489.062,410.326L489.062,379.084C489.062,374.646 487.775,370.134 485.186,365.71L485.08,365.539C487.598,361.288 489.062,356.819 489.062,352.15L489.062,320.912C489.062,316.466 487.775,311.954 485.186,307.523L484.85,306.948C487.531,302.575 489.062,297.963 489.062,293.138L489.062,261.892C489.062,257.664 487.883,253.356 485.555,249.096L485.277,248.614ZM477.436,410.325C477.436,428.264 437.668,448.223 380.541,448.223C323.468,448.223 283.693,428.264 283.693,410.325L283.693,380.94C301.504,397.254 338.148,407.659 380.541,407.659C422.993,407.659 459.635,397.247 477.436,380.925L477.436,410.325ZM477.436,352.149C477.436,370.072 437.668,390.047 380.541,390.047C323.468,390.047 283.693,370.072 283.693,352.149L283.693,322.76C301.504,339.067 338.148,349.482 380.541,349.482C422.993,349.482 459.635,339.065 477.436,322.745L477.436,352.149ZM477.436,293.137C477.436,311.06 437.668,331.035 380.541,331.035C323.468,331.035 283.693,311.067 283.693,293.137L283.693,267.138C301.099,281.889 341.459,289.538 380.541,289.538C419.675,289.538 460.018,281.889 477.436,267.138L477.436,293.137Z" style="fill:rgb(255,127,80);fill-rule:nonzero;"/>
    </g>
    <g transform="matrix(1,0,0,1,1499,371.28)">
        <path d="M819.209,1385.3L640.043,1385.3C618.337,1385.28 600.484,1367.42 600.459,1345.72L600.459,1166.55C600.484,1144.85 618.337,1126.99 640.043,1126.97L819.209,1126.97C840.915,1126.99 858.768,1144.85 858.793,1166.55L858.793,1345.72C858.768,1367.42 840.915,1385.28 819.209,1385.3Z" style="fill:white;fill-rule:nonzero;"/>
    </g>
    <g transform="matrix(1,0,0,1,1499,371.28)">
        <path d="M819.209,1385.3L640.043,1385.3C618.337,1385.28 600.484,1367.42 600.459,1345.72L600.459,1166.55C600.484,1144.85 618.337,1126.99 640.043,1126.97L819.209,1126.97C840.915,1126.99 858.768,1144.85 858.793,1166.55L858.793,1345.72C858.768,1367.42 840.915,1385.28 819.209,1385.3ZM640.043,1135.3C622.907,1135.32 608.812,1149.41 608.793,1166.55L608.793,1345.72C608.812,1362.85 622.907,1376.95 640.043,1376.97L819.209,1376.97C836.345,1376.95 850.44,1362.85 850.459,1345.72L850.459,1166.55C850.44,1149.41 836.345,1135.32 819.209,1135.3L640.043,1135.3Z" style="fill:rgb(204,204,204);fill-rule:nonzero;"/>
    </g>
    <g transform="matrix(1,0,0,1,1499,371.28)">
        <path d="M787.959,1312.39L671.293,1312.39C664.438,1312.38 658.8,1306.74 658.793,1299.89L658.793,1212.39C658.8,1205.54 664.438,1199.9 671.293,1199.89L704.136,1199.89C708.475,1199.87 712.52,1202.13 714.782,1205.84L723.942,1220.72L787.959,1220.72C794.814,1220.73 800.452,1226.37 800.459,1233.22L800.459,1299.89C800.452,1306.74 794.814,1312.38 787.959,1312.39Z" style="fill:rgb(255,127,80);fill-rule:nonzero;"/>
    </g>
    <path d="M784.164,1356.59C784.747,1357.66 785.286,1358.76 785.78,1359.88C788.22,1365.4 789.481,1371.36 789.481,1377.39C789.481,1396.25 777.144,1413.04 759.143,1418.67C757.79,1419.09 756.416,1419.43 755.027,1419.71L675.446,1625.56C670.059,1639.34 656.175,1648.01 641.432,1646.81L641.032,1646.73L468.546,1594.81C452.925,1590.1 442.158,1575.62 442.158,1559.3C442.158,1538.96 458.895,1522.23 479.235,1522.23C483.083,1522.23 486.908,1522.83 490.571,1524L612.614,1563.18L707.099,1395.68C706.264,1393.94 705.552,1392.14 704.969,1390.3C703.663,1386.13 702.999,1381.78 702.999,1377.4C702.999,1353.67 722.523,1334.15 746.249,1334.15C762.015,1334.15 776.579,1342.77 784.165,1356.59L784.164,1356.59Z" style="fill:rgb(160,97,106);fill-rule:nonzero;"/>
</svg>
