<?xml version="1.0" encoding="UTF-8" standalone="no"?>
<!DOCTYPE svg PUBLIC "-//W3C//DTD SVG 1.1//EN" "http://www.w3.org/Graphics/SVG/1.1/DTD/svg11.dtd">
<svg width="100%" height="100%" viewBox="0 0 800 800" version="1.1" xmlns="http://www.w3.org/2000/svg" xmlns:xlink="http://www.w3.org/1999/xlink" xml:space="preserve" xmlns:serif="http://www.serif.com/" style="fill-rule:evenodd;clip-rule:evenodd;stroke-linejoin:round;stroke-miterlimit:2;">
    <path d="M350.008,275C280.968,275 225,330.968 225,400.009C225,469.049 280.968,525.015 350.008,525.015C385.613,525.015 417.69,510.18 440.505,486.25C454.796,471.26 478.533,470.693 493.522,484.984C508.515,499.275 509.08,523.01 494.789,538C458.409,576.16 406.963,600.015 350.008,600.015C239.547,600.015 150,510.47 150,400.009C150,289.547 239.547,200 350.008,200C406.722,200 457.976,223.655 494.329,261.534C508.67,276.477 508.18,300.216 493.239,314.556C478.296,328.897 454.557,328.409 440.217,313.466C417.42,289.712 385.464,275 350.008,275Z" style="fill:rgb(255,127,80);fill-rule:nonzero;"/>
    <path d="M329.319,5.108C340.995,-1.703 355.434,-1.703 367.11,5.108L602.825,142.609C620.715,153.044 626.755,176.005 616.32,193.895C605.885,211.785 582.925,217.827 565.035,207.392L348.215,80.914L75,240.289L75,559.71L348.215,719.085L565.035,592.61C582.925,582.175 605.885,588.215 616.32,606.105C626.755,623.995 620.715,646.955 602.825,657.39L367.11,794.89C355.434,801.705 340.995,801.705 329.319,794.89L18.605,613.64C7.084,606.92 0,594.59 0,581.25L0,218.75C0,205.413 7.084,193.079 18.605,186.359L329.319,5.108Z" style="fill:rgb(255,127,80);fill-rule:nonzero;"/>
    <path d="M608.995,262.5C622.8,262.5 633.995,273.693 633.995,287.5L633.995,512.5C633.995,526.305 622.8,537.5 608.995,537.5C595.19,537.5 583.995,526.305 583.995,512.5L583.995,287.5C583.995,273.693 595.19,262.5 608.995,262.5Z" style="fill:rgb(255,127,80);fill-rule:nonzero;"/>
    <path d="M716.005,262.5C729.81,262.5 741.005,273.693 741.005,287.5L741.005,512.5C741.005,526.305 729.81,537.5 716.005,537.5C702.2,537.5 691.005,526.305 691.005,512.5L691.005,287.5C691.005,273.693 702.2,262.5 716.005,262.5Z" style="fill:rgb(255,127,80);fill-rule:nonzero;"/>
    <path d="M525,346.496C525,332.69 536.195,321.496 550,321.496L775,321.496C788.805,321.496 800,332.69 800,346.496C800,360.304 788.805,371.496 775,371.496L550,371.496C536.195,371.496 525,360.304 525,346.496Z" style="fill:rgb(255,127,80);fill-rule:nonzero;"/>
    <path d="M525,453.503C525,439.696 536.195,428.503 550,428.503L775,428.503C788.805,428.503 800,439.696 800,453.503C800,467.31 788.805,478.503 775,478.503L550,478.503C536.195,478.503 525,467.31 525,453.503Z" style="fill:rgb(255,127,80);fill-rule:nonzero;"/>
</svg>
