<?xml version="1.0" encoding="UTF-8" standalone="no"?>
<!DOCTYPE svg PUBLIC "-//W3C//DTD SVG 1.1//EN" "http://www.w3.org/Graphics/SVG/1.1/DTD/svg11.dtd">
<svg width="100%" height="100%" viewBox="0 0 800 800" version="1.1" xmlns="http://www.w3.org/2000/svg" xmlns:xlink="http://www.w3.org/1999/xlink" xml:space="preserve" xmlns:serif="http://www.serif.com/" style="fill-rule:evenodd;clip-rule:evenodd;stroke-linejoin:round;stroke-miterlimit:2;">
    <path d="M3.667,644C-3.333,656 0.333,671.333 12.333,678.667L177.667,780.667C189.667,788 205.333,784.333 212.667,772.333L212.667,772C317.667,596.667 338.333,622 651.667,771C664.333,777 679.333,771.667 685.667,759C685.667,759 685.667,758.667 686,758.333L764.667,580C770.333,567.333 764.667,552.333 752,546.667C717.333,530.333 648.667,498 586.667,468C199.333,279.667 69.667,539.667 3.667,644ZM796.333,156.333C803.333,144.333 799.667,129 787.667,121.667L622.667,20C611,12.333 595,15 587.333,27C587,27.333 586.667,28 586.333,28.667C481,204.667 459.667,178 148,30C135,23.667 120,29 114,41.667C114,41.667 114,42 113.667,42.333L34.667,220.667C29,233.333 34.667,248.333 47.333,254C82,270.333 151,302.667 213,332.667C600.333,520.333 730,261.667 796.333,156.333Z" style="fill:rgb(255,127,80);fill-rule:nonzero;"/>
</svg>
