<?xml version="1.0" encoding="UTF-8" standalone="no"?>
<!DOCTYPE svg PUBLIC "-//W3C//DTD SVG 1.1//EN" "http://www.w3.org/Graphics/SVG/1.1/DTD/svg11.dtd">
<svg width="100%" height="100%" viewBox="0 0 800 800" version="1.1" xmlns="http://www.w3.org/2000/svg" xmlns:xlink="http://www.w3.org/1999/xlink" xml:space="preserve" xmlns:serif="http://www.serif.com/" style="fill-rule:evenodd;clip-rule:evenodd;stroke-linejoin:round;stroke-miterlimit:2;">
    <g id="c133de6af664cd4f011a55de6b001b19">
        <path d="M754.861,0.783L688.314,721.586L399.995,799.217L111.672,721.586L45.139,0.783L754.861,0.783ZM620.766,147.347L174.791,147.347L185.548,234.391L411.767,234.391L399.736,239.398L193.377,325.345L200.22,410.428L399.736,411.075L506.67,411.414L499.825,524.861L399.734,553.041L399.734,552.952L398.914,553.18L302.252,528.778L296.386,458.356L206.091,458.356L217.827,594.305L399.738,648.1L399.738,648.003L400.066,648.1L581.002,595.284L604.472,325.345L399.233,325.345L399.738,325.127L611.972,234.391L620.766,147.347Z" style="fill:rgb(255,127,80);fill-rule:nonzero;"/>
    </g>
</svg>
