<?xml version="1.0" encoding="UTF-8" standalone="no"?>
<!DOCTYPE svg PUBLIC "-//W3C//DTD SVG 1.1//EN" "http://www.w3.org/Graphics/SVG/1.1/DTD/svg11.dtd">
<svg width="100%" height="100%" viewBox="0 0 800 800" version="1.1" xmlns="http://www.w3.org/2000/svg" xmlns:xlink="http://www.w3.org/1999/xlink" xml:space="preserve" xmlns:serif="http://www.serif.com/" style="fill-rule:evenodd;clip-rule:evenodd;stroke-linejoin:round;stroke-miterlimit:2;">
    <g id="icons" transform="matrix(1,0,0,1,-200,-299160)">
        <g id="Page-1">
            <g id="Dribbble-Light-Preview">
                <g id="icons1" serif:id="icons">
                    <path id="html---124-" serif:id="html-[#124]" d="M817.404,299400L472.479,299400L480.721,299480L809.203,299480C804.388,299550 789.823,299699 784.478,299766L599.98,299818L599.98,299818L599.572,299818L414.951,299753L402.303,299600L492.798,299600L499.203,299683L599.735,299720L599.98,299720L700.348,299684L710.67,299560L398.264,299560C396.754,299544 377.333,299336 373.947,299320L825.482,299320C822.952,299346 820.382,299374 817.404,299400ZM240,299160L305.525,299886L599.572,299960L894.393,299884L960,299160L240,299160Z" style="fill:rgb(255,127,80);"/>
                </g>
            </g>
        </g>
    </g>
</svg>
