<?xml version="1.0" encoding="UTF-8" standalone="no"?>
<!DOCTYPE svg PUBLIC "-//W3C//DTD SVG 1.1//EN" "http://www.w3.org/Graphics/SVG/1.1/DTD/svg11.dtd">
<svg width="100%" height="100%" viewBox="0 0 800 800" version="1.1" xmlns="http://www.w3.org/2000/svg" xmlns:xlink="http://www.w3.org/1999/xlink" xml:space="preserve" xmlns:serif="http://www.serif.com/" style="fill-rule:evenodd;clip-rule:evenodd;stroke-linejoin:round;stroke-miterlimit:2;">
    <g id="Page-1" transform="matrix(1.17388,0,0,1.17388,-95.4512,-67.103)">
        <g id="Q3_icons">
            <g id="Page-11" serif:id="Page-1">
                <g id="Q3_icons1" serif:id="Q3_icons">
                    <g>
                        <g transform="matrix(1.05353,0,0,1.03101,-19.0709,19.3593)">
                            <path d="M476.667,36.667C494.081,55.449 500.972,81.76 495,106.667C488.472,134.249 474.656,159.579 455,180C439.563,196.313 422.843,211.361 405,225C383.054,240.011 364.349,259.283 350,281.667C338.049,299.957 335.567,322.912 343.333,343.333C355,378.333 385,403.333 400,435C383.333,421.667 366.667,405 350,390C332.737,373.444 318.121,354.331 306.667,333.333C299.284,318.34 297.51,301.187 301.667,285C308.125,268.877 318.424,254.572 331.667,243.333C365,211.667 406.667,188.333 440,155C458.921,137.602 472.264,114.977 478.333,90C481.967,72.338 481.396,54.067 476.667,36.667Z" style="fill:rgb(255,127,80);fill-rule:nonzero;"/>
                        </g>
                        <g transform="matrix(1.05353,0,0,1.03101,-19.0709,19.3593)">
                            <path d="M450,238.333C486.682,213.873 527.263,195.837 570,185C535.221,204.117 502.301,226.436 471.667,251.667C461.048,260.864 452.523,272.231 446.667,285C443.89,295.468 444.473,306.548 448.333,316.667C457.921,332.857 468.497,348.443 480,363.333C488.467,376.85 489.716,393.717 483.333,408.333C472.433,429.498 454.855,446.49 433.333,456.667C431.667,458.333 430,461.667 426.667,461.667C440.363,450.574 448.826,434.253 450,416.667C448.597,403.444 442.714,391.09 433.333,381.667C415,360 398.333,333.333 401.667,306.667C407.608,278.187 425.126,253.421 450,238.333Z" style="fill:rgb(255,127,80);fill-rule:nonzero;"/>
                        </g>
                        <g transform="matrix(1.07541,0,0,1.07541,-24.3726,-10.0946)">
                            <path d="M576.667,443.333C585.791,436.32 596.839,432.249 608.333,431.667C628.504,427.902 649.334,433.416 665,446.667C677.089,457.653 683.278,473.745 681.667,490C676.517,507.718 666.042,523.432 651.667,535C624.218,554.21 592.952,567.285 560,573.333L566.667,568.333C592.154,557.29 614.912,540.79 633.333,520C645.929,508.656 652.168,491.812 650,475C644.225,454.841 625.96,440.635 605,440C595.434,439.474 585.849,440.602 576.667,443.333Z" style="fill:rgb(255,127,80);fill-rule:nonzero;"/>
                        </g>
                        <g transform="matrix(1.07541,0,0,1.07541,-24.3726,-10.0946)">
                            <path d="M203.333,460C237.55,445.342 274.445,437.963 311.667,438.333C289.357,442.697 267.57,449.4 246.667,458.333C241.269,460.156 236.595,463.662 233.333,468.333C233.333,471.667 236.667,473.333 240,475C252.984,478.964 266.432,481.206 280,481.667C327.758,484.446 375.653,483.889 423.333,480C470.232,477.475 516.964,472.468 563.333,465C552.572,468.305 542.434,473.374 533.333,480C528.034,482.426 522.426,484.108 516.667,485C459.482,495.577 401.485,501.153 343.333,501.667L275,501.667C250.273,500.91 225.694,497.558 201.667,491.667C194.314,490.967 187.341,488.062 181.667,483.333C179.717,482.605 178.417,480.731 178.417,478.65C178.417,477.267 178.991,475.945 180,475C186.764,468.979 194.712,464.437 203.333,461.667L203.333,460Z" style="fill:rgb(255,127,80);fill-rule:nonzero;"/>
                        </g>
                        <g transform="matrix(1.07541,0,0,1.07541,-24.3726,-24.5764)">
                            <path d="M246.667,536.667C256.882,529.477 268.119,523.859 280,520C276.667,525 270,528.333 270,535C270.746,538.688 273.233,541.796 276.667,543.333L296.667,548.333C332.656,551.966 368.855,553.08 405,551.667C436.667,550 470,545 503.333,540C512.457,547.441 522.549,553.609 533.333,558.333C493.968,568.366 453.825,575.056 413.333,578.333C374.976,580.555 336.498,579.44 298.333,575C282.862,572.337 267.758,567.862 253.333,561.667C247.53,559.683 242.737,555.489 240,550C238.728,544.552 241.545,538.918 246.667,536.667Z" style="fill:rgb(255,127,80);fill-rule:nonzero;"/>
                        </g>
                        <g transform="matrix(1.07541,0,0,1.07541,-22.5278,-46.6835)">
                            <path d="M268.333,613.333C277.5,607.211 287.646,602.701 298.333,600C295,603.333 288.333,608.333 291.667,613.333C297.953,618.107 305.468,620.998 313.333,621.667C344.863,625.275 376.628,626.389 408.333,625C431.872,623.306 455.262,619.965 478.333,615C491.536,623.01 505.492,629.709 520,635C498.033,644.175 475.114,650.883 451.667,655C411.476,662.205 370.373,662.768 330,656.667C312.139,654.211 294.733,649.157 278.333,641.667C271.477,638.957 266.043,633.523 263.333,626.667C262.29,621.638 264.241,616.436 268.333,613.333Z" style="fill:rgb(255,127,80);fill-rule:nonzero;"/>
                        </g>
                        <g transform="matrix(1.07541,0,0,1.07541,-24.102,-84.9104)">
                            <path d="M165,663.333C182.202,657.443 200.166,654.075 218.333,653.333C225.178,652.629 232.087,653.781 238.333,656.667C216.91,658.276 195.984,663.931 176.667,673.333C171.504,674.797 167.236,678.455 165,683.333C165,688.333 171.667,690 176.667,691.667C203.536,700.812 231.628,705.869 260,706.667C344.913,712.778 430.174,712.221 515,705C547.005,702.448 578.766,697.433 610,690C620.007,687.32 629.179,682.16 636.667,675C639.457,669.895 638.023,663.443 633.333,660C640,663.333 650,666.667 648.333,675C643.802,683.093 636.789,689.521 628.333,693.333C604.128,703.067 579,710.326 553.333,715C476.978,729.161 399.21,734.197 321.667,730C263.57,728.502 205.651,722.933 148.333,713.333C137.786,713.025 127.706,708.874 120,701.667C118.594,699.691 117.838,697.326 117.838,694.901C117.838,690.878 119.919,687.128 123.333,685C135.728,675.21 149.867,667.858 165,663.333Z" style="fill:rgb(255,127,80);fill-rule:nonzero;"/>
                        </g>
                        <g transform="matrix(1.24332,0,0,1.24332,-94.1063,-217.762)">
                            <path d="M630,725C648.916,719.872 666.529,710.782 681.667,698.333C680,713.333 665,723.333 651.667,730C624.754,742.565 596.097,750.993 566.667,755C504.337,764.19 441.285,767.538 378.333,765C335.331,765.878 292.347,762.528 250,755C239.4,752.878 229.249,748.93 220,743.333C257.404,750.042 295.333,753.389 333.333,753.333C396.189,755.304 459.107,753.076 521.667,746.667C558.245,742.02 594.448,734.779 630,725Z" style="fill:rgb(255,127,80);fill-rule:nonzero;"/>
                        </g>
                    </g>
                </g>
            </g>
        </g>
    </g>
</svg>
