<?xml version="1.0" encoding="UTF-8" standalone="no"?>
<!DOCTYPE svg PUBLIC "-//W3C//DTD SVG 1.1//EN" "http://www.w3.org/Graphics/SVG/1.1/DTD/svg11.dtd">
<svg width="100%" height="100%" viewBox="0 0 800 800" version="1.1" xmlns="http://www.w3.org/2000/svg" xmlns:xlink="http://www.w3.org/1999/xlink" xml:space="preserve" xmlns:serif="http://www.serif.com/" style="fill-rule:evenodd;clip-rule:evenodd;stroke-linejoin:round;stroke-miterlimit:2;">
    <g transform="matrix(1.05021,0,0,1.05021,-20.1116,-20.0854)">
        <path d="M345.525,79.475L46.05,378.975C40.675,384.35 37.35,391.775 37.35,399.975C37.35,408.175 40.675,415.6 46.05,420.975C164.15,538.725 281.925,657.55 400,774.9C433.75,741.075 454.625,694.4 454.625,642.85C454.625,590.05 432.75,542.375 397.55,508.375L397.5,508.325L289.1,399.95L389.075,299.975C352.6,263.375 330.05,212.875 330.05,157.1C330.05,129.1 335.725,102.425 346.025,78.175L345.525,79.5L345.525,79.475ZM400.125,25.1C366.3,58.9 345.4,105.6 345.4,157.2C345.4,210.825 368,259.175 404.2,293.225L404.3,293.325L510.9,399.95L411.025,499.85C447.575,536.575 470.175,587.2 470.175,643.125C470.175,670.775 464.65,697.125 454.65,721.15L455.15,719.8L754,420.95C759.375,415.575 762.7,408.15 762.7,399.95C762.7,391.75 759.375,384.325 754,378.95L400.125,25.1Z" style="fill:rgb(255,127,80);fill-rule:nonzero;"/>
    </g>
</svg>
