<?xml version="1.0" encoding="UTF-8" standalone="no"?>
<!DOCTYPE svg PUBLIC "-//W3C//DTD SVG 1.1//EN" "http://www.w3.org/Graphics/SVG/1.1/DTD/svg11.dtd">
<svg width="100%" height="100%" viewBox="0 0 800 800" version="1.1" xmlns="http://www.w3.org/2000/svg" xmlns:xlink="http://www.w3.org/1999/xlink" xml:space="preserve" xmlns:serif="http://www.serif.com/" style="fill-rule:evenodd;clip-rule:evenodd;stroke-linejoin:round;stroke-miterlimit:2;">
    <g id="Page-1" transform="matrix(0.83875,0,0,0.83875,129,129)">
        <g id="icons" transform="matrix(1,0,0,1,-9760,-294360)">
            <g id="Dribbble-Light-Preview">
                <g id="icons1" serif:id="icons">
                    <path id="linux_ubuntu---148-" serif:id="linux_ubuntu-[#148]" d="M10384.5,294498C10421.2,294518 10468.1,294506 10489.3,294471C10510.4,294436 10497.9,294390 10461.2,294370C10424.5,294350 10377.6,294362 10356.4,294397C10335.3,294432 10347.8,294478 10384.5,294498M10227.5,294976C10193.7,294976 10161.7,294969 10133.1,294956L10079.8,295048C10124.3,295069 10174.4,295081 10227.5,295081C10258.3,295081 10288.2,295077 10316.5,295069C10321.5,295040 10339.8,295012 10369,294996C10398.1,294980 10431.8,294978 10461,294989C10517.7,294935 10554.6,294862 10560,294781L10450.7,294779C10440.6,294889 10344.6,294976 10227.5,294976M10227.5,294544C10344.6,294544 10440.6,294631 10450.7,294741L10560,294739C10554.6,294658 10517.7,294585 10461,294531C10431.8,294542 10398.1,294540 10369,294524C10339.8,294508 10321.5,294480 10316.5,294451C10288.1,294443 10258.3,294439 10227.5,294439C10174.4,294439 10124.3,294451 10079.8,294472L10133.1,294564C10161.7,294551 10193.7,294544 10227.5,294544M10003.4,294760C10003.4,294687 10041.1,294622 10098.7,294583L10042.6,294493C9975.44,294536 9925.5,294602 9904.75,294679C9928.99,294699 9944.48,294728 9944.48,294760C9944.48,294792 9928.99,294821 9904.75,294841C9925.5,294918 9975.44,294984 10042.6,295027L10098.7,294937C10041.1,294898 10003.4,294833 10003.4,294760M10384.5,295022C10347.8,295042 10335.3,295088 10356.4,295123C10377.6,295158 10424.5,295171 10461.2,295150C10497.9,295130 10510.5,295084 10489.3,295049C10468.1,295014 10421.2,295002 10384.5,295022M9836.75,294686C9794.37,294686 9760,294719 9760,294760C9760,294801 9794.37,294834 9836.75,294834C9879.14,294834 9913.47,294801 9913.47,294760C9913.47,294719 9879.14,294686 9836.75,294686"/>
                </g>
            </g>
        </g>
        <g transform="matrix(0.539814,0,0,0.539814,-186.818,-159.67)">
            <path d="M390,202.5C390,205 387.5,205 387.5,205L385,205C382.5,205 382.5,202.5 380,200C380,200 377.5,197.5 377.5,195C377.5,192.5 377.5,192.5 380,192.5L385,195C387.5,197.5 390,200 390,202.5M342.5,177.5C342.5,165 337.5,157.5 330,157.5C330,157.5 330,160 327.5,160L327.5,165L335,165C335,170 337.5,172.5 337.5,177.5L342.5,177.5M432.5,165C437.5,165 440,170 442.5,177.5L447.5,177.5C445,175 445,172.5 445,170C445,167.5 445,165 442.5,162.5C440,160 437.5,157.5 435,157.5C435,157.5 432.5,160 430,160C430,162.5 432.5,162.5 432.5,165M355,205C352.5,205 352.5,205 352.5,202.5C352.5,200 352.5,197.5 355,195C360,195 362.5,192.5 362.5,192.5C365,192.5 365,195 365,195C365,197.5 362.5,200 357.5,205L355,205M327.5,202.5C317.5,197.5 315,190 315,177.5C315,170 315,165 320,160C322.5,155 327.5,152.5 332.5,152.5C337.5,152.5 340,155 345,160C347.5,167.5 350,175 350,182.5L350,187.5L352.5,187.5L352.5,185C355,185 355,180 355,170C355,162.5 355,155 350,147.5C345,140 340,135 330,135C322.5,135 315,140 312.5,147.5C307.5,157.5 307.5,165 307.5,177.5C307.5,187.5 310,197.5 322.5,207.5C322.5,205 325,205 327.5,202.5M647.5,565C650,565 650,565 650,562.5C650,557.5 647.5,550 640,542.5C632.5,535 620,530 605,527.5L595,527.5C592.5,527.5 587.5,527.5 585,525C592.5,500 595,480 595,462.5C595,437.5 590,420 580,402.5C570,387.5 560,380 547.5,377.5C545,380 545,380 545,382.5C557.5,387.5 570,397.5 577.5,412.5C585,430 587.5,445 587.5,465C587.5,480 585,500 575,527.5C565,532.5 555,540 547.5,555C547.5,557.5 547.5,557.5 550,557.5C550,557.5 552.5,555 555,550L567.5,537.5C575,532.5 580,530 587.5,530C600,530 612.5,532.5 620,535C630,537.5 635,542.5 637.5,545C640,550 642.5,552.5 645,555C645,562.5 647.5,565 647.5,565M412.5,192.5C410,190 410,185 410,180C410,170 410,165 415,157.5C420,152.5 425,150 430,150C437.5,150 442.5,155 447.5,160C450,167.5 452.5,172.5 452.5,180C452.5,192.5 447.5,200 437.5,202.5C437.5,202.5 440,205 442.5,205C447.5,205 450,207.5 455,210C457.5,195 460,185 460,172.5C460,157.5 457.5,147.5 452.5,140C445,132.5 437.5,130 427.5,130C420,130 412.5,132.5 405,137.5C400,145 397.5,150 397.5,157.5C397.5,170 400,180 405,190C407.5,190 410,192.5 412.5,192.5M442.5,235C410,257.5 382.5,267.5 362.5,267.5C345,267.5 327.5,260 310,247.5C312.5,252.5 315,257.5 317.5,260L332.5,275C342.5,285 355,290 367.5,290C385,290 405,280 432.5,262.5L455,247.5C460,242.5 465,237.5 465,230C465,227.5 465,225 462.5,225C462.5,217.5 450,210 425,202.5C402.5,192.5 385,187.5 372.5,187.5C365,187.5 352.5,192.5 335,202.5C320,212.5 310,222.5 310,232.5C310,232.5 312.5,235 315,240C330,252.5 345,260 360,260C380,260 405,250 440,225L440,230C442.5,232.5 442.5,235 442.5,235M502.5,752.5C512.5,772.5 530,782.5 550,782.5C555,782.5 560,782.5 565,780C570,780 575,777.5 577.5,775C580,772.5 582.5,772.5 585,770C590,767.5 590,767.5 592.5,765L635,727.5C645,720 655,712.5 667.5,705L692.5,692.5C700,690 705,687.5 710,682.5C712.5,677.5 715,675 715,667.5C715,660 710,655 705,650C700,645 695,642.5 690,642.5C685,640 680,637.5 672.5,630C667.5,622.5 662.5,615 660,602.5L657.5,587.5C655,580 655,575 652.5,572.5L650,572.5C647.5,572.5 642.5,575 640,580L625,595C622.5,600 615,605 610,610C602.5,615 595,617.5 590,617.5C570,617.5 560,612.5 552.5,600C547.5,592.5 545,582.5 542.5,572.5C537.5,567.5 535,565 530,565C517.5,565 512.5,577.5 512.5,605L512.5,682.5C512.5,685 510,690 510,697.5C507.5,705 507.5,715 507.5,725L502.5,752.5M130,737.5C155,740 182.5,747.5 212.5,760C242.5,772.5 262.5,777.5 270,777.5C287.5,777.5 302.5,770 315,755C317.5,750 317.5,745 317.5,737.5C317.5,712.5 302.5,682.5 272.5,645L255,622.5C252.5,617.5 247.5,610 242.5,600C237.5,590 232.5,582.5 227.5,577.5C225,572.5 220,565 212.5,560C205,555 197.5,550 190,547.5C180,550 172.5,552.5 167.5,557.5C162.5,562.5 162.5,567.5 162.5,572.5C162.5,577.5 160,582.5 157.5,582.5C155,585 150,585 145,587.5L130,587.5C117.5,587.5 107.5,590 102.5,592.5C95,600 92.5,607.5 92.5,617.5C92.5,622.5 92.5,627.5 95,637.5C97.5,647.5 97.5,655 97.5,660C97.5,670 95,680 87.5,692.5C80,702.5 77.5,712.5 77.5,717.5C82.5,727.5 100,735 130,737.5M215,505C215,487.5 220,467.5 230,445C240,422.5 247.5,407.5 257.5,397.5C257.5,395 255,395 252.5,395L250,390C242.5,397.5 232.5,415 222.5,442.5C212.5,465 205,487.5 205,502.5C205,515 207.5,525 212.5,532.5C217.5,540 232.5,552.5 252.5,570L280,587.5C310,612.5 325,630 325,640C325,645 322.5,650 315,657.5C310,662.5 302.5,667.5 297.5,667.5L297.5,670L305,685C315,700 340,707.5 370,707.5C427.5,707.5 470,685 502.5,637.5C502.5,625 502.5,617.5 500,612.5L500,602.5C500,585 502.5,572.5 507.5,565C512.5,557.5 517.5,552.5 525,552.5C530,552.5 535,555 540,557.5C542.5,537.5 542.5,520 542.5,505C542.5,482.5 542.5,462.5 537.5,445C535,430 530,417.5 525,407.5L510,385C505,377.5 502.5,370 497.5,362.5C495,352.5 492.5,345 492.5,332.5C485,320 480,307.5 472.5,295C467.5,282.5 462.5,270 457.5,260L435,277.5C410,295 390,302.5 370,302.5C355,302.5 342.5,300 335,290L320,277.5C320,285 317.5,295 312.5,305L297.5,335C290,352.5 287.5,362.5 285,370C285,375 282.5,380 282.5,380L262.5,417.5C242.5,455 230,492.5 230,520C230,525 230,532.5 232.5,537.5C220,530 215,520 215,505M400,747.5C367.5,747.5 340,752.5 322.5,760C310,775 295,782.5 275,782.5C262.5,782.5 242.5,777.5 215,767.5C187.5,757.5 165,750 142.5,747.5C140,747.5 135,745 127.5,745C120,745 112.5,742.5 107.5,742.5C102.5,742.5 95,740 90,737.5C82.5,735 77.5,732.5 75,730C72.5,727.5 70,722.5 70,720C70,715 70,712.5 72.5,707.5C75,702.5 77.5,700 80,697.5C82.5,695 82.5,692.5 85,690C87.5,687.5 87.5,685 87.5,682.5C87.5,680 90,677.5 90,675L90,667.5C90,667.5 90,657.5 87.5,642.5C85,630 85,620 85,617.5C85,605 87.5,597.5 92.5,590C97.5,582.5 102.5,580 110,580L140,580C142.5,580 145,577.5 152.5,575C155,570 155,567.5 157.5,565C160,562.5 160,560 160,557.5C160,555 160,555 162.5,552.5C162.5,550 165,547.5 167.5,547.5C165,545 165,542.5 165,537.5L165,530C165,520 170,507.5 177.5,490L187.5,475L205,440C210,430 215,415 220,395C225,377.5 235,360 250,340L270,317.5C282.5,302.5 292.5,290 297.5,280C302.5,270 305,257.5 305,247.5C305,242.5 302.5,227.5 300,202.5C297.5,177.5 295,150 295,127.5C295,110 297.5,97.5 300,85C302.5,72.5 310,60 317.5,50C325,40 335,30 350,25C365,20 382.5,17.5 405,17.5C412.5,17.5 420,17.5 427.5,20C435,20 445,22.5 457.5,27.5C467.5,32.5 477.5,37.5 485,45C490,50 500,62.5 507.5,75C512.5,90 517.5,105 520,127.5C522.5,140 522.5,152.5 525,170C525,185 527.5,195 527.5,202.5C530,210 530,220 532.5,232.5C535,242.5 537.5,252.5 542.5,260C547.5,270 552.5,280 560,290C567.5,302.5 577.5,315 587.5,330C610,355 627.5,385 640,412.5C652.5,437.5 660,472.5 660,507.5C660,525 657.5,542.5 652.5,560C657.5,560 660,562.5 662.5,565C665,567.5 667.5,577.5 670,587.5L672.5,607.5C675,612.5 677.5,617.5 685,622.5C690,627.5 695,630 702.5,635C707.5,637.5 715,640 720,645C725,650 727.5,655 727.5,660C727.5,667.5 725,675 720,680C715,685 710,687.5 702.5,690L672.5,705C660,712.5 647.5,722.5 635,732.5L610,755C600,765 590,772.5 582.5,777.5C575,782.5 565,785 555,785L537.5,782.5C517.5,777.5 505,767.5 497.5,750C452.5,750 420,747.5 400,747.5" style="fill-rule:nonzero;"/>
        </g>
    </g>
</svg>
