<?xml version="1.0" encoding="UTF-8" standalone="no"?>
<!DOCTYPE svg PUBLIC "-//W3C//DTD SVG 1.1//EN" "http://www.w3.org/Graphics/SVG/1.1/DTD/svg11.dtd">
<svg width="100%" height="100%" viewBox="0 0 800 800" version="1.1" xmlns="http://www.w3.org/2000/svg" xmlns:xlink="http://www.w3.org/1999/xlink" xml:space="preserve" xmlns:serif="http://www.serif.com/" style="fill-rule:evenodd;clip-rule:evenodd;stroke-linejoin:round;stroke-miterlimit:2;">
    <path d="M775,0L25,0C11.285,0 -0,11.285 0,25L0,775C0,788.715 11.285,800 25,800L775,800C788.715,800 800,788.715 800,775L800,25C800,11.285 788.715,0 775,0ZM50,50L359,50C297.25,183.5 275,388 275,397.5C274.277,404.507 276.549,411.504 281.25,416.75C286.032,422.049 292.862,425.054 300,425L422.25,425C417.47,483.377 419.568,542.113 428.5,600C419.25,600 409.75,601.25 400,601.25C302.36,599.506 209.727,557.178 144.5,484.5C135.97,473.848 120.213,472.047 109.5,480.5C103.507,485.238 100.005,492.471 100.005,500.111C100.005,505.796 101.944,511.315 105.5,515.75C180.084,600.284 287.27,649.146 400,650C413.25,650 426.25,650 438.75,648C447.324,683.387 460.08,717.629 476.75,750L50,750L50,50ZM750,750L534.75,750C513.637,715.789 497.951,678.513 488.25,639.5C568.112,620.527 640.176,577.288 694.5,515.75C698.364,511.225 700.488,505.466 700.488,499.516C700.488,485.801 689.203,474.516 675.488,474.516C667.632,474.516 660.219,478.219 655.5,484.5C608.301,536.695 546.565,573.615 478.25,590.5C468.802,528.677 467.709,465.864 475,403.75C475.188,402.508 475.283,401.254 475.283,399.998C475.283,386.284 463.998,374.998 450.283,374.998C450.189,374.998 450.094,374.999 450,375L328.25,375C336.75,310.25 362.25,147 414.75,50L750,50L750,750Z" style="fill:rgb(255,127,80);fill-rule:nonzero;"/>
    <path d="M200,325C213.715,325 225,313.715 225,300L225,225C225,211.285 213.715,200 200,200C186.285,200 175,211.285 175,225L175,300C175,313.715 186.285,325 200,325Z" style="fill:rgb(255,127,80);fill-rule:nonzero;"/>
    <path d="M600,325C613.715,325 625,313.715 625,300L625,225C625,211.285 613.715,200 600,200C586.285,200 575,211.285 575,225L575,300C575,313.715 586.285,325 600,325Z" style="fill:rgb(255,127,80);fill-rule:nonzero;"/>
</svg>
