<?xml version="1.0" encoding="UTF-8" standalone="no"?>
<!DOCTYPE svg PUBLIC "-//W3C//DTD SVG 1.1//EN" "http://www.w3.org/Graphics/SVG/1.1/DTD/svg11.dtd">
<svg width="100%" height="100%" viewBox="0 0 800 800" version="1.1" xmlns="http://www.w3.org/2000/svg" xmlns:xlink="http://www.w3.org/1999/xlink" xml:space="preserve" xmlns:serif="http://www.serif.com/" style="fill-rule:evenodd;clip-rule:evenodd;stroke-linejoin:round;stroke-miterlimit:2;">
    <g>
        <g>
            <path d="M399.999,0C281.948,0 156.522,36.556 156.522,104.348L156.522,417.391C156.522,485.913 278.992,521.739 399.999,521.739C521.007,521.739 643.477,485.913 643.477,417.391L643.477,104.348C643.478,36.556 518.052,0 399.999,0ZM608.695,417.391C608.695,450.295 522.991,486.957 399.999,486.957C277.007,486.957 191.304,450.296 191.304,417.391L191.304,368.626C236.765,400.557 319.999,417.391 399.999,417.391C480,417.391 563.233,400.557 608.695,368.626L608.695,417.391ZM608.695,313.043C608.695,342.086 529.286,382.609 399.999,382.609C270.712,382.609 191.304,342.088 191.304,313.043L191.304,264.279C236.765,296.209 319.999,313.043 399.999,313.043C480,313.043 563.233,296.209 608.695,264.279L608.695,313.043ZM608.695,208.696C608.695,237.738 529.286,278.261 399.999,278.261C270.712,278.261 191.304,237.74 191.304,208.696L191.304,159.931C236.765,191.861 319.999,208.696 399.999,208.696C480,208.696 563.233,191.861 608.695,159.931L608.695,208.696ZM399.999,173.913C270.712,173.913 191.304,133.392 191.304,104.348C191.304,75.305 270.712,34.782 399.999,34.782C529.286,34.782 608.695,75.303 608.695,104.348C608.695,133.391 529.286,173.913 399.999,173.913Z" style="fill:rgb(255,127,80);fill-rule:nonzero;"/>
        </g>
    </g>
    <g>
        <g>
            <path d="M405.425,626.747L400.278,625.878C369.774,620.903 365.217,612.973 365.217,608.695C365.217,601.774 379.095,591.303 400.035,591.303C420.592,591.303 434.157,601.077 434.853,608.103C435.758,617.669 444.21,625.041 453.81,623.755C463.376,622.85 470.367,614.364 469.462,604.798C466.819,577.25 436.976,556.485 400.001,556.485C360.975,556.485 330.401,579.407 330.401,608.659C330.401,635.894 352.001,653.215 394.645,660.172L397.462,643.025L399.792,661.043C428.696,665.809 434.749,673.043 434.749,678.26C434.749,685.182 420.87,695.652 399.931,695.652C379.374,695.652 365.809,685.844 365.113,678.818C364.208,669.252 355.964,662.122 346.156,663.166C336.59,664.071 329.599,672.557 330.504,682.123C333.148,709.669 362.992,730.434 399.965,730.434C438.991,730.434 469.565,707.512 469.565,678.26C469.565,651.06 447.999,633.738 405.425,626.747Z" style="fill:rgb(255,127,80);fill-rule:nonzero;"/>
        </g>
    </g>
    <g>
        <g>
            <path d="M643.478,608.695C643.478,579.929 620.07,556.521 591.304,556.521L556.522,556.521C527.757,556.521 504.349,579.929 504.349,608.695L504.349,678.26C504.349,707.026 527.757,730.434 556.522,730.434L591.304,730.434C599.339,730.434 606.852,728.452 613.635,725.217L613.773,725.355C617.183,728.729 621.634,730.434 626.087,730.434C630.539,730.434 634.99,728.73 638.365,725.355C645.148,718.573 645.148,707.546 638.365,700.764L638.227,700.625C641.496,693.842 643.478,686.295 643.478,678.26L643.478,608.695ZM608.695,671.095L603.582,665.982C596.799,659.199 585.772,659.199 578.99,665.982C572.207,672.764 572.207,683.791 578.99,690.573L584.069,695.652L556.521,695.652C546.921,695.652 539.129,687.86 539.129,678.26L539.129,608.695C539.129,599.095 546.921,591.303 556.521,591.303L591.303,591.303C600.903,591.303 608.695,599.095 608.695,608.695L608.695,671.095Z" style="fill:rgb(255,127,80);fill-rule:nonzero;"/>
        </g>
    </g>
    <g>
        <g>
            <path d="M765.216,695.652L713.042,695.652L713.042,573.913C713.042,564.313 705.251,556.521 695.651,556.521C686.051,556.521 678.259,564.313 678.259,573.913L678.259,713.042C678.259,722.642 686.051,730.434 695.651,730.434L765.216,730.434C774.816,730.434 782.608,722.642 782.608,713.042C782.608,703.442 774.816,695.652 765.216,695.652Z" style="fill:rgb(255,127,80);fill-rule:nonzero;"/>
        </g>
    </g>
    <g>
        <g>
            <path d="M286.051,627.895C277.425,623.616 267.026,627.094 262.712,635.687L243.478,674.191L224.243,635.721C219.931,627.13 209.496,623.651 200.904,627.929C192.313,632.241 188.799,642.676 193.112,651.269L224.033,713.077L193.146,774.816C188.868,783.407 192.346,793.842 200.938,798.156C203.442,799.408 206.085,800 208.694,800C215.059,800 221.181,796.486 224.276,790.366L293.842,651.236C298.122,642.644 294.644,632.209 286.051,627.895Z" style="fill:rgb(255,127,80);fill-rule:nonzero;"/>
        </g>
    </g>
    <g>
        <g>
            <path d="M144.626,557.426C137.565,555.026 129.704,557.496 125.217,563.478L86.956,614.47L48.696,563.478C44.209,557.496 36.453,555.026 29.287,557.426C22.192,559.791 17.392,566.434 17.392,573.913L17.392,713.042C17.392,722.642 25.184,730.434 34.784,730.434C44.384,730.434 52.174,722.642 52.174,713.042L52.174,626.087L73.043,653.913C79.617,662.678 94.33,662.678 100.87,653.913L121.74,626.087L121.74,713.042C121.74,722.642 129.531,730.434 139.131,730.434C148.731,730.434 156.522,722.642 156.522,713.042L156.522,573.913C156.522,566.434 151.722,559.791 144.626,557.426Z" style="fill:rgb(255,127,80);fill-rule:nonzero;"/>
        </g>
    </g>
</svg>
