<?xml version="1.0" encoding="UTF-8" standalone="no"?>
<!DOCTYPE svg PUBLIC "-//W3C//DTD SVG 1.1//EN" "http://www.w3.org/Graphics/SVG/1.1/DTD/svg11.dtd">
<svg width="100%" height="100%" viewBox="0 0 800 800" version="1.1" xmlns="http://www.w3.org/2000/svg" xmlns:xlink="http://www.w3.org/1999/xlink" xml:space="preserve" xmlns:serif="http://www.serif.com/" style="fill-rule:evenodd;clip-rule:evenodd;stroke-linejoin:round;stroke-miterlimit:2;">
    <g id="icons" transform="matrix(1,0,0,1,-11360,-297560)">
        <g id="Page-1">
            <g id="Dribbble-Light-Preview">
                <g id="icons1" serif:id="icons">
                    <path id="python---127-" serif:id="python-[#127]" d="M11869.8,298298C11850.5,298298 11834.9,298283 11834.9,298263C11834.9,298244 11850.5,298228 11869.8,298228C11889,298228 11904.6,298244 11904.6,298263C11904.6,298283 11889,298298 11869.8,298298M11762.9,298360C11966,298360 11953.3,298271 11953.3,298271L11953.1,298180L11759.3,298180L11759.3,298152L12030,298152C12030,298152 12160,298167 12160,297961C12160,297755 12046.6,297762 12046.6,297762L11978.9,297762L11978.9,297858C11978.9,297858 11982.5,297972 11867.3,297972L11675,297972C11675,297972 11567,297970 11567,298077L11567,298253C11567,298253 11550.6,298360 11762.9,298360M11650.3,297622C11669.6,297622 11685.1,297637 11685.1,297657C11685.1,297676 11669.6,297692 11650.3,297692C11631,297692 11615.4,297676 11615.4,297657C11615.4,297637 11631,297622 11650.3,297622M11757.1,297560C11554,297560 11566.7,297649 11566.7,297649L11567,297740L11760.8,297740L11760.8,297768L11490,297768C11490,297768 11360,297753 11360,297959C11360,298165 11473.4,298158 11473.4,298158L11541.1,298158L11541.1,298062C11541.1,298062 11537.5,297948 11652.8,297948L11845,297948C11845,297948 11953,297950 11953,297843L11953,297667C11953,297667 11969.4,297560 11757.1,297560" style="fill:rgb(255,127,80);"/>
                </g>
            </g>
        </g>
    </g>
</svg>
