<?xml version="1.0" encoding="UTF-8" standalone="no"?>
<!DOCTYPE svg PUBLIC "-//W3C//DTD SVG 1.1//EN" "http://www.w3.org/Graphics/SVG/1.1/DTD/svg11.dtd">
<svg width="100%" height="100%" viewBox="0 0 800 800" version="1.1" xmlns="http://www.w3.org/2000/svg" xmlns:xlink="http://www.w3.org/1999/xlink" xml:space="preserve" xmlns:serif="http://www.serif.com/" style="fill-rule:evenodd;clip-rule:evenodd;stroke-linejoin:round;stroke-miterlimit:2;">
    <g transform="matrix(0.925344,0,0,1.04349,-22.8823,-48.8693)">
        <path d="M-52,-23.743L-52,-26L966,-26L966,-23.743L-52,-23.743ZM886.943,425.932C886.943,476.768 814.33,524.214 703.5,554.716C730.252,652.998 718.787,730.946 669.104,758.058C657.639,764.836 642.352,768.225 627.065,768.225C581.204,768.225 516.235,737.724 455.087,683.499C393.94,737.724 332.792,768.225 283.109,768.225C267.822,768.225 252.536,764.836 241.07,758.058C187.566,730.946 179.923,652.998 206.675,554.716C99.666,524.214 27.054,480.157 27.054,425.932C27.054,371.708 99.666,327.65 206.675,297.149C179.923,198.867 191.388,120.919 241.07,97.196C252.536,90.418 267.822,87.028 283.109,87.028C332.792,87.028 393.94,117.53 458.909,171.754C520.057,117.53 581.204,87.028 630.887,87.028C646.174,87.028 657.639,90.418 672.926,97.196C722.608,120.919 734.073,198.867 707.321,297.149C814.33,327.65 886.943,371.708 886.943,425.932ZM573.561,486.935C585.026,466.601 600.313,446.267 615.6,425.932L581.204,364.93C565.917,344.595 554.452,324.261 539.165,307.316C512.413,303.927 489.483,303.927 462.731,303.927C435.979,303.927 409.226,307.316 386.296,307.316C371.009,324.261 355.722,344.595 344.257,364.93L309.861,425.932L344.257,486.935C355.722,507.269 367.187,527.603 382.474,544.549C405.405,547.938 432.157,547.938 458.909,547.938C485.661,547.938 508.591,544.549 535.344,544.549C546.809,524.214 562.096,507.269 573.561,486.935ZM457,367.822C494.222,367.822 524.442,394.62 524.442,427.628C524.442,460.637 494.222,487.435 457,487.435C419.777,487.435 389.557,460.637 389.557,427.628C389.557,394.62 419.777,367.822 457,367.822ZM455.087,629.275C470.374,615.718 485.661,598.773 500.948,581.828L409.226,581.828C424.513,598.773 439.8,615.718 455.087,629.275ZM607.956,347.984C615.6,358.152 623.243,371.708 630.887,381.875C638.53,364.93 646.174,344.595 653.817,324.261L585.026,314.094C592.669,324.261 600.313,334.428 607.956,347.984ZM630.887,469.99C623.243,480.157 615.6,493.713 607.956,503.88C600.313,517.436 592.669,527.603 585.026,537.771L653.817,527.603C646.174,507.269 638.53,490.324 630.887,469.99ZM455.087,222.59C439.8,236.146 424.513,253.091 409.226,270.037L500.948,270.037C485.661,253.091 470.374,236.146 455.087,222.59ZM168.458,500.491C183.744,507.269 199.031,514.047 218.14,514.047C225.783,483.546 241.07,453.045 256.357,422.543C241.07,392.042 229.605,361.541 218.14,331.039C199.031,334.428 183.744,337.817 168.458,344.595C107.31,368.319 69.093,398.82 69.093,422.543C69.093,449.656 107.31,476.768 168.458,500.491ZM745.539,500.491C806.686,480.157 844.904,449.656 844.904,425.932C844.904,398.82 806.686,371.708 745.539,347.984C730.252,344.595 714.965,337.817 695.856,334.428C688.213,361.541 672.926,395.431 657.639,425.932C672.926,456.434 684.391,486.935 695.856,517.436C714.965,510.658 730.252,507.269 745.539,500.491ZM325.148,537.771C317.505,527.603 309.861,517.436 302.218,503.88C294.575,493.713 286.931,480.157 279.288,469.99C271.644,490.324 264.001,507.269 256.357,527.603L325.148,537.771ZM283.109,381.875C286.931,371.708 294.575,358.152 306.04,347.984C313.683,337.817 321.327,324.261 328.97,314.094L260.179,324.261C267.822,341.206 275.466,361.541 283.109,381.875ZM630.887,124.308C596.491,124.308 542.987,148.031 489.483,195.478C512.413,215.812 535.344,242.924 558.274,270.037C596.491,273.426 634.708,280.204 669.104,286.982C672.926,273.426 672.926,256.48 676.747,242.924C684.391,185.311 672.926,141.253 649.995,127.697C646.174,124.308 638.53,124.308 630.887,124.308ZM264.001,724.168C267.822,727.557 275.466,727.557 283.109,730.946C317.505,730.946 371.009,703.833 428.335,656.387C401.583,632.664 378.653,605.551 355.722,578.439C317.505,575.05 283.109,568.272 248.714,561.494C241.07,578.439 241.07,595.384 237.249,608.94C229.605,666.554 241.07,710.612 264.001,724.168ZM237.249,242.924C237.249,256.48 241.07,273.426 248.714,290.371C283.109,283.593 321.327,276.815 359.544,273.426C382.474,246.313 405.405,222.59 428.335,198.867C371.009,148.031 317.505,124.308 283.109,124.308C275.466,124.308 267.822,124.308 264.001,127.697C237.249,141.253 229.605,185.311 237.249,242.924ZM676.747,608.94C672.926,595.384 669.104,578.439 665.282,558.105C634.708,568.272 596.491,571.661 558.274,575.05C535.344,605.551 508.591,629.275 485.661,652.998C542.987,703.833 596.491,727.557 630.887,727.557C638.53,727.557 646.174,727.557 649.995,724.168C676.747,710.612 684.391,666.554 676.747,608.94Z" style="fill:rgb(255,127,80);"/>
    </g>
</svg>
