<?xml version="1.0" encoding="UTF-8" standalone="no"?>
<!DOCTYPE svg PUBLIC "-//W3C//DTD SVG 1.1//EN" "http://www.w3.org/Graphics/SVG/1.1/DTD/svg11.dtd">
<svg width="100%" height="100%" viewBox="0 0 800 800" version="1.1" xmlns="http://www.w3.org/2000/svg" xmlns:xlink="http://www.w3.org/1999/xlink" xml:space="preserve" xmlns:serif="http://www.serif.com/" style="fill-rule:evenodd;clip-rule:evenodd;stroke-linejoin:round;stroke-miterlimit:2;">
    <g transform="matrix(0.785855,0,0,0.886188,40.8644,21.0409)">
        <path d="M966,-26L966,879L-52,879L-52,-26L966,-26ZM886.943,425.932C886.943,371.708 814.33,327.65 707.321,297.149C734.073,198.867 722.608,120.919 672.926,97.196C657.639,90.418 646.174,87.028 630.887,87.028C581.204,87.028 520.057,117.53 458.909,171.754C393.94,117.53 332.792,87.028 283.109,87.028C267.822,87.028 252.536,90.418 241.07,97.196C191.388,120.919 179.923,198.867 206.675,297.149C99.666,327.65 27.054,371.708 27.054,425.932C27.054,480.157 99.666,524.214 206.675,554.716C179.923,652.998 187.566,730.946 241.07,758.058C252.536,764.836 267.822,768.225 283.109,768.225C332.792,768.225 393.94,737.724 455.087,683.499C516.235,737.724 581.204,768.225 627.065,768.225C642.352,768.225 657.639,764.836 669.104,758.058C718.787,730.946 730.252,652.998 703.5,554.716C814.33,524.214 886.943,476.768 886.943,425.932ZM630.887,124.308C638.53,124.308 646.174,124.308 649.995,127.697C672.926,141.253 684.391,185.311 676.747,242.924C672.926,256.48 672.926,273.426 669.104,286.982C634.708,280.204 596.491,273.426 558.274,270.037C535.344,242.924 512.413,215.812 489.483,195.478C542.987,148.031 596.491,124.308 630.887,124.308ZM264.001,724.168C241.07,710.612 229.605,666.554 237.249,608.94C241.07,595.384 241.07,578.439 248.714,561.494C283.109,568.272 317.505,575.05 355.722,578.439C378.653,605.551 401.583,632.664 428.335,656.387C371.009,703.833 317.505,730.946 283.109,730.946C275.466,727.557 267.822,727.557 264.001,724.168ZM630.887,469.99C638.53,490.324 646.174,507.269 653.817,527.603L585.026,537.771C592.669,527.603 600.313,517.436 607.956,503.88C615.6,493.713 623.243,480.157 630.887,469.99ZM455.087,629.275C439.8,615.718 424.513,598.773 409.226,581.828L500.948,581.828C485.661,598.773 470.374,615.718 455.087,629.275ZM607.956,347.984C600.313,334.428 592.669,324.261 585.026,314.094L653.817,324.261C646.174,344.595 638.53,364.93 630.887,381.875C623.243,371.708 615.6,358.152 607.956,347.984ZM455.087,222.59C470.374,236.146 485.661,253.091 500.948,270.037L409.226,270.037C424.513,253.091 439.8,236.146 455.087,222.59ZM745.539,500.491C730.252,507.269 714.965,510.658 695.856,517.436C684.391,486.935 672.926,456.434 657.639,425.932C672.926,395.431 688.213,361.541 695.856,334.428C714.965,337.817 730.252,344.595 745.539,347.984C806.686,371.708 844.904,398.82 844.904,425.932C844.904,449.656 806.686,480.157 745.539,500.491ZM325.148,537.771L256.357,527.603C264.001,507.269 271.644,490.324 279.288,469.99C286.931,480.157 294.575,493.713 302.218,503.88C309.861,517.436 317.505,527.603 325.148,537.771ZM168.458,500.491C107.31,476.768 69.093,449.656 69.093,422.543C69.093,398.82 107.31,368.319 168.458,344.595C183.744,337.817 199.031,334.428 218.14,331.039C229.605,361.541 241.07,392.042 256.357,422.543C241.07,453.045 225.783,483.546 218.14,514.047C199.031,514.047 183.744,507.269 168.458,500.491ZM237.249,242.924C229.605,185.311 237.249,141.253 264.001,127.697C267.822,124.308 275.466,124.308 283.109,124.308C317.505,124.308 371.009,148.031 428.335,198.867C405.405,222.59 382.474,246.313 359.544,273.426C321.327,276.815 283.109,283.593 248.714,290.371C241.07,273.426 237.249,256.48 237.249,242.924ZM573.561,486.935C562.096,507.269 546.809,524.214 535.344,544.549C508.591,544.549 485.661,547.938 458.909,547.938C432.157,547.938 405.405,547.938 382.474,544.549C367.187,527.603 355.722,507.269 344.257,486.935L309.861,425.932L344.257,364.93C355.722,344.595 371.009,324.261 386.296,307.316C409.226,307.316 435.979,303.927 462.731,303.927C489.483,303.927 512.413,303.927 539.165,307.316C554.452,324.261 565.917,344.595 581.204,364.93L615.6,425.932C600.313,446.267 585.026,466.601 573.561,486.935ZM457,367.822C419.777,367.822 389.557,394.62 389.557,427.628C389.557,460.637 419.777,487.435 457,487.435C494.222,487.435 524.442,460.637 524.442,427.628C524.442,394.62 494.222,367.822 457,367.822ZM676.747,608.94C684.391,666.554 676.747,710.612 649.995,724.168C646.174,727.557 638.53,727.557 630.887,727.557C596.491,727.557 542.987,703.833 485.661,652.998C508.591,629.275 535.344,605.551 558.274,575.05C596.491,571.661 634.708,568.272 665.282,558.105C669.104,578.439 672.926,595.384 676.747,608.94ZM283.109,381.875C275.466,361.541 267.822,341.206 260.179,324.261L328.97,314.094C321.327,324.261 313.683,337.817 306.04,347.984C294.575,358.152 286.931,371.708 283.109,381.875Z"/>
    </g>
    <rect x="688" y="-2" width="1" height="2"/>
</svg>
