<?xml version="1.0" encoding="UTF-8" standalone="no"?>
<!DOCTYPE svg PUBLIC "-//W3C//DTD SVG 1.1//EN" "http://www.w3.org/Graphics/SVG/1.1/DTD/svg11.dtd">
<svg width="100%" height="100%" viewBox="0 0 800 800" version="1.1" xmlns="http://www.w3.org/2000/svg" xmlns:xlink="http://www.w3.org/1999/xlink" xml:space="preserve" xmlns:serif="http://www.serif.com/" style="fill-rule:evenodd;clip-rule:evenodd;stroke-linejoin:round;stroke-miterlimit:2;">
    <g transform="matrix(12.3906,0,0,12.3906,3.50372,-18.7258)">
        <path d="M32.195,3.312C14.521,3.351 -0,17.905 -0,35.579C-0,44.375 3.596,52.799 9.949,58.883C12.209,61.04 15.742,61.224 18.213,59.313C26.34,53.285 37.531,53.285 45.658,59.313C48.154,61.288 51.767,61.103 54.047,58.883C60.402,52.799 64,44.373 64,35.576C64,18.049 49.72,3.563 32.195,3.312M32.015,51.587C31.846,51.592 31.678,51.595 31.509,51.595C22.933,51.595 15.877,44.539 15.877,35.963C15.877,35.829 15.879,35.695 15.882,35.561C15.876,35.382 15.873,35.203 15.873,35.024C15.873,26.222 23.116,18.98 31.917,18.98C40.718,18.98 47.961,26.222 47.961,35.024C47.961,35.203 47.958,35.382 47.952,35.561C47.956,35.7 47.958,35.839 47.958,35.979C47.958,44.544 40.909,51.593 32.344,51.593C32.204,51.593 32.065,51.591 31.926,51.587" style="fill:rgb(255,127,80);stroke:rgb(255,127,80);stroke-width:0.08px;"/>
    </g>
</svg>
