<?xml version="1.0" encoding="UTF-8" standalone="no"?>
<!DOCTYPE svg PUBLIC "-//W3C//DTD SVG 1.1//EN" "http://www.w3.org/Graphics/SVG/1.1/DTD/svg11.dtd">
<svg width="100%" height="100%" viewBox="0 0 800 800" version="1.1" xmlns="http://www.w3.org/2000/svg" xmlns:xlink="http://www.w3.org/1999/xlink" xml:space="preserve" xmlns:serif="http://www.serif.com/" style="fill-rule:evenodd;clip-rule:evenodd;stroke-linejoin:round;stroke-miterlimit:2;">
    <path d="M0,0L0,800L800,800L800,0L0,0ZM644.7,368.133C665.033,373.2 680.5,382.233 694.733,396.967C702.1,404.833 713.033,419.167 713.9,422.633C714.167,423.633 679.367,446.967 658.3,460.067C657.533,460.567 654.467,457.267 651.067,452.2C640.733,437.2 629.967,430.733 613.467,429.6C589.2,427.933 573.6,440.633 573.733,461.833C573.512,467.046 574.686,472.225 577.133,476.833C582.467,487.867 592.4,494.5 623.467,507.933C680.767,532.6 705.267,548.833 720.5,571.933C737.5,597.7 741.333,638.867 729.767,669.467C717.1,702.733 685.6,725.333 641.267,732.8C627.567,735.233 595.067,734.867 580.333,732.2C548.2,726.467 517.733,710.6 498.933,689.767C491.567,681.667 477.2,660.433 478.1,658.933C478.467,658.4 481.767,656.367 485.433,654.233C489.033,652.2 502.467,644.433 515.167,637.067L538.167,623.733L543,630.867C549.733,641.133 564.433,655.233 573.333,659.933C598.867,673.4 633.9,671.5 651.167,656C658.2,650.075 662.065,641.184 661.6,632C661.6,622.733 660.433,618.667 655.6,611.667C649.4,602.8 636.7,595.333 600.633,579.667C559.367,561.9 541.6,550.867 525.333,533.333C515.181,521.763 507.683,508.109 503.367,493.333C500.333,482.033 499.567,453.7 501.967,442.3C510.467,402.4 540.567,374.633 584,366.367C598.1,363.7 630.867,364.7 644.7,368.133ZM456.9,401.533L457.167,434.3L353,434.3L353,730.167L279.333,730.167L279.333,434.3L175.267,434.3L175.267,402.167C175.267,384.367 175.633,369.5 176.133,369.167C176.533,368.633 239.9,368.367 316.7,368.5L456.533,368.9L456.9,401.533Z" style="fill:rgb(255,127,80);fill-rule:nonzero;"/>
</svg>
